<svg width="328" height="218" viewBox="0 0 328 218" fill="none" xmlns="http://www.w3.org/2000/svg">
<path d="M157.68 102.699L155.44 111.057L170.084 114.981L172.323 106.622L157.68 102.699Z" fill="#5F696D"/>
<path d="M129.556 31.4297C129.27 31.2283 128.973 31.024 128.686 30.8226C128.563 30.7328 128.437 30.6536 128.321 30.5773C127.909 30.2967 127.494 30.0266 127.078 29.7566C126.729 29.5381 126.382 29.3091 126.021 29.0878C125.953 29.0468 125.885 29.0058 125.816 28.9648C125.701 28.8885 125.582 28.8227 125.464 28.7569C125.143 28.5576 124.819 28.3688 124.485 28.1772C124.366 28.1114 124.24 28.0322 124.122 27.9665C123.73 27.7367 123.324 27.5146 122.919 27.2926C122.877 27.2812 122.85 27.2516 122.811 27.2296C122.366 26.9857 121.908 26.7495 121.46 26.5161C121.36 26.4666 121.249 26.4142 121.152 26.3541C120.804 26.1703 120.443 25.9941 120.082 25.818C119.953 25.7494 119.832 25.6942 119.7 25.6362C119.318 25.4544 118.946 25.2754 118.561 25.1042C118.479 25.071 118.4 25.0271 118.318 24.9939C117.854 24.7788 117.377 24.5715 116.91 24.367C116.817 24.3309 116.725 24.2948 116.636 24.2481C116.258 24.0903 115.87 23.9297 115.493 23.7719C115.351 23.711 115.205 23.6608 115.073 23.6027C114.714 23.4612 114.345 23.3168 113.983 23.1858C113.859 23.1412 113.738 23.0861 113.624 23.0443C113.138 22.8687 112.652 22.6931 112.177 22.5204C112.103 22.5006 112.039 22.4836 111.968 22.4531C111.553 22.308 111.125 22.1706 110.708 22.036C110.549 21.9935 110.404 21.9432 110.248 21.8901C109.891 21.7831 109.526 21.6627 109.169 21.5558C109.021 21.5161 108.873 21.4764 108.717 21.4233C108.223 21.2795 107.718 21.1328 107.22 20.9995C98.322 18.6152 89.3586 18.0393 80.7328 19.0394C72.059 20.0493 63.6931 22.6614 56.0558 26.6593C48.3408 30.6932 41.3509 36.1688 35.5442 42.8574C29.6563 49.6375 24.9692 57.692 21.9729 66.8006C21.7937 67.3423 21.6279 67.8763 21.4622 68.4102C21.414 68.5901 21.3686 68.7594 21.3099 68.9364C21.2106 69.3067 21.1008 69.6742 20.9938 70.0311C20.94 70.2322 20.8833 70.4438 20.8294 70.6448C20.7387 70.9834 20.6451 71.3326 20.5544 71.6711C20.4977 71.8828 20.441 72.0944 20.3977 72.2982C20.3042 72.6474 20.2346 72.9916 20.1516 73.3436C20.1006 73.5341 20.0573 73.738 20.0169 73.9313C19.9303 74.339 19.8437 74.7467 19.7706 75.1467C19.7337 75.2843 19.718 75.4275 19.6811 75.565C19.5817 76.1054 19.4823 76.6458 19.3934 77.189C19.3643 77.34 19.3486 77.4832 19.3195 77.6341C19.2598 78.0264 19.1972 78.4292 19.1375 78.8215C19.1048 79.0282 19.0855 79.2271 19.0528 79.4338C19.0072 79.7732 18.9588 80.1231 18.9238 80.4653C18.8989 80.6854 18.8767 80.8949 18.8518 81.115C18.8168 81.4572 18.7846 81.7888 18.7497 82.131C18.7275 82.3405 18.7054 82.5501 18.6939 82.7624C18.6638 83.1286 18.6365 83.4842 18.6171 83.8532C18.6034 84.031 18.587 84.2194 18.5839 84.4C18.5537 84.9362 18.5234 85.4725 18.5037 86.0115C18.4923 86.0538 18.5022 86.1018 18.5042 86.1364C18.4853 86.6303 18.4741 87.1376 18.4658 87.6344C18.4627 87.815 18.4597 87.9956 18.4672 88.1791C18.4611 88.5404 18.4657 88.9045 18.4702 89.2685C18.472 89.4732 18.4739 89.6778 18.4758 89.8824C18.4833 90.0659 18.4803 90.2465 18.4878 90.43C18.4904 90.5895 18.5037 90.7518 18.5063 90.9112C18.5187 91.1187 18.5178 91.3339 18.5302 91.5414C18.551 91.8871 18.5583 92.2407 18.5791 92.5864C18.5944 92.7833 18.5991 92.9774 18.6144 93.1742C18.6421 93.5786 18.6727 93.9724 18.7033 94.3661C18.7172 94.4833 18.7206 94.5976 18.7346 94.7147C18.7289 94.7359 18.7444 94.7627 18.7387 94.7839C18.7854 95.3294 18.8454 95.8671 18.9026 96.4154C18.9194 96.522 18.9256 96.6257 18.9424 96.7323C18.9963 97.1663 19.0501 97.6003 19.1039 98.0343C19.1326 98.2235 19.1641 98.402 19.1822 98.5883C19.2347 98.9426 19.2872 99.2969 19.3503 99.654C19.3868 99.8565 19.4126 100.056 19.4491 100.259C19.5044 100.603 19.5703 100.949 19.6391 101.285C19.6755 101.488 19.7148 101.68 19.7513 101.882C19.8249 102.242 19.8986 102.602 19.9722 102.962C20.0066 103.13 20.0487 103.311 20.0831 103.479C20.1968 103.986 20.3105 104.493 20.4348 105.002C20.4369 105.037 20.4523 105.064 20.4544 105.098C20.5787 105.608 20.7164 106.11 20.8407 106.619C20.8934 106.804 20.9383 106.974 20.991 107.159C21.0809 107.5 21.1814 107.845 21.2848 108.179C21.3424 108.387 21.4134 108.587 21.471 108.796C21.5666 109.116 21.665 109.426 21.7606 109.746C21.8288 109.957 21.897 110.168 21.968 110.369C22.0741 110.692 22.1831 111.005 22.2893 111.328C22.3603 111.529 22.4236 111.716 22.4946 111.916C22.624 112.28 22.7612 112.657 22.9011 113.023C22.9546 113.162 22.9975 113.298 23.0509 113.437C23.0481 113.448 23.0636 113.475 23.0713 113.488C23.2599 113.97 23.4484 114.451 23.6475 114.935C23.7115 115.077 23.765 115.216 23.829 115.358C23.9824 115.717 24.1358 116.076 24.2892 116.434C24.3659 116.614 24.4532 116.796 24.5271 116.986C24.6678 117.307 24.8114 117.617 24.9521 117.939C25.0365 118.131 25.1238 118.314 25.2188 118.509C25.373 118.823 25.5166 119.133 25.6707 119.447C25.758 119.629 25.8453 119.811 25.9354 119.983C26.1079 120.312 26.2775 120.653 26.45 120.982C26.5091 121.1 26.5682 121.218 26.6302 121.325C26.6534 121.366 26.6661 121.403 26.6893 121.443C26.9393 121.907 27.1892 122.371 27.442 122.824C27.4497 122.838 27.4652 122.865 27.473 122.878C27.7412 123.358 28.0201 123.841 28.3017 124.314C28.3792 124.448 28.4595 124.571 28.5369 124.705C28.7412 125.044 28.9454 125.382 29.1602 125.723C29.2637 125.887 29.3672 126.051 29.4708 126.214C29.6623 126.515 29.8539 126.816 30.056 127.12C30.1701 127.286 30.2814 127.464 30.3955 127.63C30.5899 127.921 30.7921 128.224 30.9971 128.517C31.1112 128.684 31.2253 128.851 31.3422 129.007C31.5733 129.329 31.8121 129.666 32.0431 129.988C32.134 130.115 32.2171 130.228 32.308 130.354C32.6327 130.793 32.9603 131.221 33.2879 131.649C33.3894 131.778 33.4831 131.894 33.5845 132.023C33.8213 132.325 34.0657 132.64 34.3159 132.933C34.4511 133.106 34.5892 133.267 34.7274 133.429C34.8655 133.591 35.0007 133.763 35.1388 133.925C35.217 134.014 35.303 134.116 35.3812 134.205C35.5271 134.381 35.6835 134.559 35.8322 134.723C36.0485 134.974 36.2648 135.225 36.4946 135.468C36.6433 135.632 36.7919 135.797 36.9512 135.964C37.1964 136.234 37.4339 136.491 37.682 136.75C37.8152 136.888 37.9455 137.036 38.0893 137.177C38.4445 137.544 38.7997 137.911 39.1577 138.268C39.1838 138.298 39.2098 138.327 39.2465 138.36C39.6412 138.749 40.0358 139.138 40.4439 139.52C40.5616 139.631 40.6899 139.744 40.8076 139.855C41.098 140.126 41.3884 140.397 41.6788 140.667C41.8254 140.797 41.972 140.927 42.1186 141.057C42.3935 141.301 42.679 141.548 42.9539 141.791C43.1005 141.921 43.2577 142.054 43.4071 142.174C43.6926 142.42 43.9915 142.659 44.2875 142.908C44.3792 142.99 44.4708 143.071 44.5758 143.145C44.6231 143.18 44.6703 143.215 44.7147 143.261C45.0608 143.535 45.407 143.809 45.7531 144.084C45.8581 144.157 45.9498 144.238 46.0548 144.312C46.506 144.66 46.96 144.997 47.4246 145.337C47.5113 145.394 47.5874 145.448 47.6713 145.516C48.0414 145.786 48.4221 146.058 48.7951 146.316C48.958 146.428 49.1208 146.54 49.2943 146.654C49.6017 146.861 49.8985 147.066 50.2059 147.273C50.3871 147.401 50.5817 147.521 50.7763 147.641C51.0653 147.832 51.3572 148.012 51.6597 148.195C51.8543 148.315 52.0489 148.436 52.2435 148.556C52.546 148.739 52.8591 148.925 53.1616 149.108C53.3484 149.215 53.5324 149.332 53.7193 149.439C53.7588 149.461 53.7983 149.483 53.8455 149.518C54.2376 149.748 54.6324 149.967 55.0273 150.186C55.1352 150.249 55.2537 150.315 55.3644 150.367C55.8199 150.614 56.2754 150.861 56.7338 151.097C56.8233 151.144 56.9235 151.193 57.013 151.24C57.2133 151.339 57.4107 151.449 57.611 151.548C57.8508 151.669 58.0828 151.776 58.3226 151.897C58.3938 151.927 58.4728 151.971 58.544 152.002C59.0158 152.23 59.4904 152.448 59.9756 152.669C60.0863 152.721 60.2076 152.776 60.3183 152.829C60.7139 153.003 61.1202 153.18 61.5264 153.357C61.5976 153.387 61.6688 153.417 61.7401 153.448C61.8508 153.5 61.9749 153.545 62.0856 153.597C62.5765 153.797 63.0779 153.999 63.5794 154.202C63.6429 154.219 63.7141 154.249 63.7747 154.277C64.2579 154.463 64.7544 154.641 65.2403 154.817C65.325 154.839 65.3962 154.87 65.478 154.903C65.5098 154.912 65.5521 154.923 65.5838 154.931C66.0592 155.104 66.548 155.269 67.0396 155.424C67.1454 155.452 67.2484 155.491 67.3514 155.53C67.8719 155.703 68.3952 155.866 68.932 156.021C69.0167 156.044 69.1119 156.07 69.1965 156.092C69.3976 156.146 69.588 156.197 69.7862 156.262C69.8815 156.287 69.9661 156.31 70.0613 156.335C70.1566 156.361 70.2412 156.383 70.3364 156.409C70.4317 156.434 70.5163 156.457 70.6115 156.483C70.7068 156.508 70.7914 156.531 70.8866 156.556C71.5003 156.721 72.114 156.885 72.7333 157.029C72.9661 157.091 73.2046 157.132 73.4507 157.187C73.8239 157.275 74.1971 157.364 74.5731 157.442C74.5731 157.442 74.5836 157.445 74.5942 157.448C74.9173 157.512 75.2298 157.573 75.5529 157.637C75.8548 157.695 76.1539 157.764 76.4481 157.808C76.8058 157.87 77.174 157.935 77.5317 157.997C77.7807 158.041 78.0298 158.085 78.2682 158.126L78.2894 158.132C78.6922 158.194 79.0873 158.243 79.4795 158.303C79.6968 158.339 79.9169 158.364 80.1342 158.399C80.5504 158.454 80.9695 158.498 81.3886 158.543C81.577 158.559 81.7625 158.586 81.9509 158.602C81.9509 158.602 81.972 158.608 81.9826 158.611C82.3911 158.652 82.8025 158.683 83.2109 158.725C83.4205 158.747 83.6194 158.766 83.8318 158.778C84.2326 158.806 84.6227 158.831 85.0129 158.856C85.2147 158.865 85.4242 158.887 85.626 158.895C85.6472 158.901 85.6684 158.907 85.6924 158.902C85.7932 158.906 85.8941 158.911 85.995 158.915C86.4544 158.936 86.9271 158.949 87.3864 158.97C87.5113 158.97 87.6228 158.977 87.7477 158.976C88.2656 158.99 88.7757 158.991 89.2965 158.994C89.4319 158.997 89.5568 158.996 89.6951 158.988C89.844 158.982 89.9901 158.987 90.1496 158.985C90.5242 158.983 90.9017 158.971 91.2898 158.962C91.335 158.962 91.383 158.952 91.4387 158.956C91.9411 158.943 92.4464 158.92 92.941 158.894C93.0554 158.89 93.1697 158.887 93.2868 158.873C93.7363 158.846 94.1752 158.816 94.6247 158.789C94.7045 158.788 94.7765 158.773 94.8456 158.769C94.9599 158.766 95.0665 158.749 95.1808 158.745C95.6917 158.701 96.2132 158.659 96.727 158.604C96.7587 158.612 96.7855 158.597 96.8201 158.595C97.3579 158.535 97.885 158.472 98.4256 158.401C98.5322 158.385 98.6359 158.378 98.7425 158.362C98.8384 158.342 98.9422 158.336 99.0353 158.327C99.4588 158.27 99.885 158.203 100.311 158.135C100.346 158.133 100.37 158.128 100.404 158.126C100.463 158.119 100.511 158.11 100.572 158.092C101.071 158.01 101.558 157.925 102.049 157.83C102.107 157.823 102.155 157.813 102.217 157.796C102.611 157.72 102.992 157.652 103.379 157.563C103.465 157.54 103.547 157.528 103.633 157.506C104.017 157.427 104.403 157.338 104.79 157.249C105.019 157.197 105.249 157.145 105.478 157.093C105.913 156.994 106.34 156.882 106.767 156.769C106.948 156.727 107.13 156.685 107.304 156.63C108.523 156.31 109.741 155.956 110.935 155.561C111.095 155.514 111.258 155.455 111.421 155.397C111.857 155.253 112.293 155.109 112.72 154.951C112.921 154.88 113.135 154.801 113.335 154.73C113.723 154.596 114.103 154.448 114.482 154.301C114.71 154.214 114.926 154.125 115.143 154.035C115.509 153.895 115.865 153.753 116.224 153.599C116.454 153.502 116.684 153.405 116.901 153.316C117.246 153.17 117.594 153.014 117.942 152.857C118.06 152.798 118.186 152.753 118.301 152.704C118.416 152.656 118.52 152.604 118.625 152.553C118.962 152.394 119.297 152.245 119.637 152.076C119.87 151.968 120.093 151.857 120.328 151.739C120.666 151.58 120.996 151.408 121.325 151.235C121.548 151.125 121.773 151.004 121.995 150.893C122.339 150.713 122.668 150.54 123.001 150.357C123.213 150.244 123.424 150.131 123.639 150.007C124.001 149.797 124.364 149.588 124.726 149.379C124.9 149.279 125.075 149.178 125.249 149.077C125.775 148.764 126.291 148.449 126.809 148.123C126.906 148.058 127.002 147.993 127.11 147.931C127.534 147.659 127.956 147.398 128.372 147.113C128.552 146.991 128.732 146.869 128.913 146.747C129.246 146.519 129.576 146.302 129.899 146.07C130.095 145.93 130.292 145.79 130.488 145.65C130.797 145.427 131.104 145.214 131.403 144.988C131.475 144.928 131.556 144.881 131.629 144.822C131.755 144.731 131.874 144.626 132 144.535C132.285 144.317 132.584 144.091 132.872 143.862C133.071 143.711 133.273 143.55 133.465 143.386C133.753 143.157 134.031 142.925 134.319 142.696C134.51 142.532 134.699 142.378 134.89 142.214C135.171 141.972 135.451 141.729 135.731 141.487C135.909 141.33 136.101 141.166 136.279 141.01C136.565 140.746 136.848 140.493 137.134 140.23C137.302 140.07 137.466 139.922 137.634 139.762C137.939 139.47 138.244 139.178 138.552 138.874C138.69 138.741 138.828 138.608 138.962 138.485C139.365 138.083 139.771 137.67 140.176 137.257C140.206 137.231 140.235 137.205 140.257 137.165C140.685 136.713 141.112 136.26 141.529 135.805C141.64 135.687 141.74 135.567 141.851 135.449C142.157 135.112 142.453 134.771 142.751 134.42C142.783 134.383 142.816 134.347 142.848 134.31C142.965 134.171 143.081 134.032 143.195 133.904C143.445 133.608 143.694 133.312 143.933 133.013C144.088 132.816 144.242 132.62 144.408 132.426C144.63 132.145 144.856 131.854 145.078 131.574C145.236 131.366 145.394 131.159 145.554 130.941C145.766 130.658 145.978 130.374 146.19 130.091C146.351 129.873 146.511 129.655 146.661 129.435C146.753 129.301 146.857 129.17 146.952 129.025C147.061 128.873 147.159 128.718 147.268 128.565C147.415 128.355 147.565 128.135 147.715 127.914C147.919 127.617 148.113 127.318 148.309 127.007C148.446 126.794 148.582 126.581 148.719 126.369C148.918 126.048 149.117 125.727 149.317 125.406C149.44 125.201 149.56 125.006 149.683 124.801C149.907 124.43 150.121 124.057 150.334 123.683C150.422 123.525 150.52 123.37 150.608 123.212C150.912 122.67 151.213 122.138 151.499 121.579C151.499 121.579 151.499 121.579 151.502 121.569C151.748 121.113 151.974 120.652 152.21 120.194C152.254 120.115 152.287 120.033 152.331 119.954C152.554 119.503 152.777 119.053 152.989 118.599C153.038 118.499 153.075 118.407 153.124 118.307C153.176 118.196 153.229 118.085 153.281 117.974C153.441 117.632 153.593 117.276 153.742 116.93C153.773 116.859 153.806 116.777 153.837 116.706C154.044 116.228 154.238 115.759 154.435 115.278C154.44 115.257 154.446 115.236 154.452 115.215C154.582 114.898 154.701 114.579 154.829 114.273C154.898 114.098 154.97 113.914 155.029 113.737C155.052 113.652 155.096 113.573 155.115 113.499C155.299 113.026 155.474 112.54 155.639 112.052C155.665 111.956 155.701 111.864 155.737 111.772C155.888 111.336 156.039 110.9 156.179 110.461C156.193 110.408 156.207 110.355 156.221 110.302C156.244 110.218 156.267 110.133 156.297 110.062C156.457 109.549 156.617 109.036 156.77 108.51C156.773 108.5 156.775 108.489 156.781 108.468C156.931 107.952 157.069 107.434 157.208 106.915C157.228 106.841 157.251 106.757 157.271 106.683C157.282 106.64 157.296 106.587 157.31 106.534C157.384 106.259 157.455 105.995 157.518 105.717C157.575 105.505 157.629 105.304 157.664 105.087C157.676 105.045 157.687 105.002 157.695 104.971C157.701 104.949 157.71 104.918 157.715 104.896C157.789 104.621 157.842 104.341 157.905 104.063C157.968 103.785 158.031 103.507 158.084 103.226C158.191 102.699 158.298 102.172 158.394 101.642C158.426 101.481 158.448 101.316 158.48 101.155C158.512 100.948 158.559 100.734 158.591 100.527C158.615 100.352 158.65 100.18 158.672 100.016C158.696 99.8406 158.728 99.679 158.752 99.504C158.823 99.0695 158.881 98.6426 158.941 98.2052C158.956 98.1072 158.971 98.0091 158.986 97.9111C158.992 97.8899 159 97.8582 159.006 97.837C159.073 97.3333 159.126 96.8373 159.183 96.3307C159.195 96.1981 159.211 96.0549 159.224 95.9223C159.247 95.6676 159.283 95.4051 159.306 95.1504C159.322 95.0072 159.327 94.8611 159.343 94.7179C159.353 94.5507 159.375 94.3863 159.386 94.2191C159.414 93.8184 159.444 93.407 159.462 93.0034C159.472 92.8814 159.485 92.7488 159.484 92.6239C159.495 92.5815 159.488 92.523 159.489 92.4778C159.495 92.2866 159.498 92.106 159.515 91.9176C159.526 91.5352 159.552 91.145 159.563 90.7626C159.576 90.505 159.574 90.2552 159.576 89.9949C159.582 89.6336 159.588 89.2724 159.592 88.9217C159.596 88.8208 159.6 88.7199 159.594 88.6161C159.591 88.4567 159.589 88.2972 159.589 88.1272C159.582 87.7737 159.582 87.4335 159.572 87.0906C159.563 86.8274 159.554 86.5642 159.545 86.301C159.535 85.9581 159.514 85.6123 159.494 85.2665C159.488 85.1176 159.486 84.9582 159.469 84.8064C159.463 84.7027 159.449 84.5856 159.443 84.4818C159.422 84.1361 159.391 83.7875 159.37 83.4417C159.348 83.1862 159.326 82.9308 159.303 82.6753C159.275 82.3161 159.236 81.9541 159.197 81.5921C159.179 81.4058 159.16 81.2195 159.14 81.0438C159.13 80.9958 159.123 80.9372 159.123 80.892C159.075 80.482 159.026 80.072 158.966 79.6592C158.945 79.4834 158.927 79.2971 158.896 79.1186C158.815 78.53 158.724 77.9386 158.62 77.3549C158.62 77.3549 158.623 77.3444 158.625 77.3338C158.541 76.8461 158.448 76.345 158.36 75.8679C158.351 75.8199 158.341 75.7719 158.331 75.7239C158.311 75.628 158.292 75.532 158.272 75.436C158.198 75.076 158.122 74.7267 158.048 74.3667C158.011 74.2093 157.984 74.0548 157.947 73.8974C157.861 73.5 157.764 73.0998 157.667 72.6996C157.645 72.6142 157.625 72.5182 157.602 72.4328C157.483 71.9472 157.364 71.4616 157.231 70.9838C157.196 70.861 157.161 70.7382 157.126 70.6153C157.031 70.2497 156.925 69.8813 156.817 69.5234C156.777 69.3766 156.726 69.2269 156.689 69.0695C156.584 68.7011 156.465 68.3404 156.349 67.9691C156.311 67.8569 156.276 67.734 156.238 67.6218C156.081 67.1489 155.924 66.6759 155.768 66.203C155.745 66.1176 155.709 66.0399 155.684 65.9651C155.55 65.5775 155.405 65.1872 155.26 64.7968C155.206 64.6577 155.153 64.5187 155.099 64.3796C154.967 64.0266 154.832 63.6842 154.697 63.3419C154.651 63.2162 154.595 63.0877 154.549 62.9621C154.369 62.494 154.174 62.0338 153.98 61.5735C153.98 61.5735 153.975 61.5495 153.968 61.5361C153.781 61.0892 153.581 60.6501 153.381 60.2109C153.325 60.0825 153.258 59.9511 153.202 59.8226C153.053 59.488 152.891 59.1611 152.732 58.8236C152.666 58.6923 152.602 58.5504 152.535 58.4191C152.488 58.3386 152.455 58.2504 152.411 58.1593C152.257 57.8458 152.1 57.5429 151.946 57.2294C151.926 57.1786 151.903 57.1384 151.872 57.0847C151.648 56.6505 151.413 56.2134 151.189 55.7792C151.12 55.6585 151.053 55.5272 150.983 55.4064C150.808 55.0873 150.64 54.7816 150.454 54.4596C150.377 54.3254 150.292 54.1778 150.214 54.0437C150.021 53.7083 149.827 53.3729 149.623 53.0347C149.568 52.9408 149.514 52.8468 149.457 52.7635C149.207 52.3448 148.953 51.9367 148.689 51.5257C148.663 51.496 148.65 51.4586 148.635 51.4318C148.578 51.3484 148.521 51.2651 148.463 51.1818C148.272 50.881 148.078 50.5907 147.886 50.2899C147.798 50.1529 147.699 50.0131 147.611 49.8761C147.406 49.583 147.215 49.2822 147.01 48.9891C146.937 48.879 146.854 48.766 146.782 48.6558C146.501 48.2632 146.221 47.8705 145.93 47.475C145.87 47.4023 145.813 47.3189 145.753 47.2462C145.519 46.934 145.278 46.6085 145.044 46.2963C144.95 46.1805 144.859 46.0541 144.768 45.9276C144.55 45.6423 144.321 45.3542 144.1 45.0794C144.014 44.977 143.93 44.864 143.834 44.7588C143.212 43.991 142.584 43.2444 141.932 42.5028C141.846 42.4004 141.75 42.2951 141.661 42.2033C141.531 42.0549 141.4 41.9066 141.27 41.7583C141.158 41.6262 141.032 41.5019 140.92 41.3698C140.824 41.2645 140.735 41.1727 140.638 41.0674C140.33 40.7354 140.02 40.414 139.709 40.0926C139.683 40.0629 139.646 40.0304 139.62 40.0008C139.273 39.6468 138.925 39.2929 138.575 38.9496C138.486 38.8577 138.395 38.7765 138.313 38.6981C138.044 38.4331 137.772 38.1788 137.503 37.9139C137.393 37.8164 137.286 37.7083 137.176 37.6108C136.886 37.3402 136.595 37.0696 136.302 36.8096C136.229 36.7446 136.155 36.6796 136.085 36.604C135.718 36.279 135.352 35.9539 134.982 35.6395C134.891 35.5583 134.796 35.4876 134.705 35.4063C134.419 35.1597 134.131 34.9237 133.843 34.6877C133.712 34.5845 133.591 34.4842 133.46 34.381C133.179 34.1584 132.902 33.9252 132.621 33.7026C132.508 33.6157 132.406 33.5316 132.293 33.4447C131.908 33.1486 131.522 32.8525 131.136 32.5563C131.115 32.5507 131.107 32.5373 131.089 32.521C131.024 32.4694 130.955 32.4284 130.89 32.3768C130.577 32.1457 130.254 31.9118 129.939 31.6913C129.805 31.5987 129.671 31.5061 129.537 31.4135L129.556 31.4297ZM152.387 104.932C152.387 104.932 152.373 104.985 152.365 105.016C152.242 105.516 152.119 106.017 151.989 106.503C151.969 106.577 151.949 106.651 151.929 106.726C151.802 107.202 151.674 107.678 151.525 108.148C151.523 108.159 151.517 108.18 151.514 108.191C151.376 108.664 151.224 109.145 151.076 109.615C151.053 109.7 151.033 109.774 151 109.856C150.857 110.305 150.703 110.752 150.549 111.198C150.524 111.293 150.491 111.375 150.455 111.468C150.301 111.914 150.137 112.358 149.962 112.798C149.942 112.872 149.898 112.951 149.878 113.026C149.767 113.313 149.656 113.601 149.534 113.886C149.398 114.224 149.263 114.562 149.116 114.897C149.025 115.11 148.934 115.324 148.845 115.527C148.696 115.873 148.549 116.208 148.389 116.55C148.304 116.743 148.215 116.946 148.119 117.136C147.954 117.5 147.778 117.861 147.601 118.222C147.521 118.393 147.444 118.554 147.354 118.722C147.112 119.202 146.87 119.681 146.62 120.148C146.599 120.187 146.574 120.237 146.552 120.277C146.28 120.782 145.998 121.285 145.719 121.777C145.634 121.924 145.536 122.08 145.451 122.227C145.256 122.572 145.051 122.914 144.849 123.245C144.732 123.429 144.612 123.624 144.505 123.811C144.325 124.103 144.142 124.405 143.951 124.694C143.817 124.896 143.686 125.088 143.563 125.293C143.389 125.564 143.201 125.843 143.015 126.111C142.882 126.313 142.738 126.512 142.591 126.722C142.405 126.99 142.223 127.248 142.041 127.505C141.894 127.715 141.75 127.915 141.592 128.122C141.399 128.376 141.206 128.631 141.013 128.885C140.858 129.082 140.714 129.282 140.559 129.478C140.353 129.74 140.15 129.992 139.946 130.244C139.794 130.43 139.642 130.616 139.49 130.802C139.27 131.072 139.043 131.329 138.823 131.599C138.677 131.764 138.541 131.931 138.395 132.096C138.132 132.4 137.859 132.701 137.596 133.005C137.485 133.123 137.382 133.254 137.271 133.371C136.887 133.79 136.502 134.209 136.1 134.611C136.051 134.666 135.991 134.718 135.943 134.773C135.599 135.123 135.253 135.484 134.899 135.832C134.761 135.965 134.624 136.098 134.489 136.221C134.213 136.487 133.941 136.743 133.665 137.009C133.511 137.161 133.349 137.299 133.185 137.448C132.928 137.685 132.661 137.92 132.405 138.157C132.23 138.303 132.062 138.462 131.887 138.608C131.634 138.835 131.372 139.049 131.108 139.273C130.933 139.419 130.744 139.572 130.569 139.718C130.308 139.931 130.047 140.145 129.785 140.358C129.599 140.501 129.424 140.647 129.239 140.79C128.967 141.001 128.698 141.201 128.426 141.412C128.24 141.555 128.057 141.687 127.871 141.83C127.589 142.038 127.306 142.246 127.013 142.451C126.83 142.583 126.661 142.708 126.481 142.83C126.174 143.043 125.857 143.252 125.551 143.465C125.387 143.569 125.231 143.686 125.067 143.789C124.653 144.064 124.242 144.328 123.834 144.581C123.767 144.62 123.697 144.669 123.63 144.708C123.141 145.008 122.653 145.308 122.167 145.598C122.019 145.683 121.872 145.768 121.724 145.853C121.375 146.055 121.027 146.256 120.681 146.447C120.493 146.555 120.297 146.65 120.112 146.748C119.793 146.923 119.477 147.088 119.16 147.253C118.962 147.359 118.753 147.461 118.544 147.564C118.231 147.718 117.928 147.875 117.614 148.029C117.405 148.132 117.186 148.232 116.977 148.335C116.666 148.478 116.355 148.622 116.045 148.766C115.825 148.865 115.619 148.958 115.4 149.058C115.078 149.198 114.77 149.331 114.449 149.472C114.233 149.561 114.016 149.651 113.799 149.74C113.47 149.867 113.149 150.008 112.82 150.135C112.606 150.214 112.4 150.306 112.186 150.385C111.844 150.52 111.494 150.642 111.154 150.766C110.953 150.837 110.753 150.908 110.563 150.982C110.176 151.117 109.788 151.251 109.393 151.372C109.233 151.42 109.08 151.481 108.92 151.529C107.817 151.879 106.695 152.214 105.574 152.503C105.403 152.548 105.232 152.593 105.062 152.638C104.672 152.738 104.282 152.838 103.885 152.924C103.666 152.979 103.45 153.023 103.234 153.067C102.885 153.144 102.536 153.22 102.186 153.297C101.754 153.385 101.322 153.473 100.88 153.559C100.821 153.566 100.76 153.583 100.701 153.59C100.259 153.676 99.8085 153.748 99.3688 153.823C99.2863 153.835 99.1903 153.855 99.1077 153.867C98.6334 153.944 98.1514 154.007 97.68 154.074C97.5734 154.091 97.4697 154.097 97.3737 154.116C96.8811 154.177 96.3886 154.238 95.8988 154.288C95.8776 154.283 95.8402 154.295 95.8162 154.3C95.3476 154.356 94.8713 154.398 94.3978 154.43C94.2941 154.437 94.1904 154.443 94.0972 154.452C93.6209 154.494 93.1368 154.523 92.6633 154.555C92.5596 154.561 92.4452 154.565 92.3415 154.571C91.8814 154.595 91.4348 154.612 90.9775 154.625C90.9218 154.622 90.8738 154.631 90.818 154.628C90.3368 154.646 89.8506 154.641 89.3722 154.649C89.2473 154.649 89.1224 154.65 88.987 154.648C88.5114 154.645 88.0464 154.645 87.5737 154.632C87.4622 154.625 87.3479 154.628 87.2258 154.618C86.7982 154.605 86.3812 154.596 85.9565 154.573C85.8556 154.568 85.7653 154.567 85.6644 154.562C85.452 154.551 85.2531 154.532 85.0407 154.52C84.6823 154.503 84.3161 154.473 83.9605 154.446C83.7481 154.435 83.528 154.41 83.3185 154.387C82.9629 154.36 82.6101 154.322 82.2545 154.295C82.0344 154.27 81.8248 154.248 81.6047 154.223C81.252 154.185 80.8992 154.147 80.5493 154.099C80.3186 154.071 80.1013 154.036 79.8735 153.997C79.5341 153.952 79.1842 153.903 78.8477 153.847C78.6198 153.809 78.3814 153.768 78.1429 153.726C77.8064 153.67 77.4699 153.614 77.1334 153.558C76.9055 153.52 76.6699 153.468 76.4449 153.419C76.1006 153.349 75.7641 153.293 75.4227 153.213C75.1342 153.147 74.8457 153.081 74.5678 153.018C74.2898 152.955 74.0013 152.889 73.7234 152.826C73.1598 152.686 72.5856 152.544 72.0142 152.39C71.4958 152.252 70.9773 152.113 70.4645 151.953C70.3799 151.93 70.2952 151.907 70.2106 151.884C69.7267 151.743 69.2351 151.589 68.7569 151.427C68.6617 151.401 68.5587 151.362 68.4663 151.326C67.9881 151.164 67.5099 151.002 67.0317 150.84C66.947 150.817 66.8758 150.787 66.794 150.754C66.3504 150.589 65.9067 150.425 65.4525 150.258C65.3891 150.241 65.3284 150.213 65.2678 150.186C64.8058 150.005 64.3438 149.825 63.8847 149.634C63.7818 149.595 63.671 149.543 63.5681 149.504C63.1301 149.318 62.6816 149.13 62.2464 148.934C62.1463 148.884 62.0328 148.843 61.9326 148.793C61.4869 148.594 61.044 148.385 60.6012 148.176C60.5299 148.145 60.4721 148.107 60.4009 148.077C59.9898 147.876 59.5892 147.678 59.1887 147.48C59.1097 147.436 59.0173 147.4 58.9383 147.356C58.5089 147.139 58.0928 146.914 57.6662 146.686C57.5661 146.637 57.4688 146.576 57.3687 146.527C56.9632 146.305 56.55 146.069 56.1474 145.837C55.9817 145.736 55.816 145.635 55.6474 145.544C55.3633 145.377 55.0685 145.208 54.7872 145.03C54.6109 144.926 54.4269 144.809 54.2535 144.694C53.9827 144.52 53.7092 144.356 53.4384 144.181C53.265 144.067 53.0915 143.952 52.9181 143.838C52.6396 143.65 52.3505 143.459 52.072 143.271C51.9198 143.162 51.7646 143.064 51.6124 142.955C51.2683 142.715 50.9243 142.475 50.5831 142.225C50.5069 142.171 50.4202 142.114 50.3469 142.049C49.919 141.741 49.5044 141.426 49.0899 141.111C48.9955 141.04 48.9038 140.959 48.7988 140.885C48.4787 140.641 48.1721 140.388 47.852 140.144C47.7103 140.038 47.5821 139.924 47.4538 139.81C47.1838 139.591 46.9138 139.371 46.6572 139.143C46.5184 139.027 46.3718 138.897 46.2329 138.78C45.9735 138.563 45.7169 138.336 45.4709 138.111C45.3349 137.984 45.196 137.867 45.06 137.74C44.7957 137.499 44.5314 137.258 44.2699 137.007C44.1522 136.896 44.0317 136.796 43.9245 136.687C43.5531 136.338 43.1845 135.979 42.8265 135.622C42.7898 135.59 42.756 135.547 42.7088 135.511C42.3874 135.187 42.066 134.863 41.7475 134.528C41.6143 134.39 41.4917 134.255 41.3585 134.117C41.1365 133.888 40.9174 133.648 40.6982 133.407C40.5601 133.246 40.4086 133.092 40.2705 132.93C40.0697 132.706 39.8688 132.482 39.6786 132.261C39.5299 132.096 39.3918 131.935 39.2459 131.76C39.0479 131.525 38.8577 131.304 38.6703 131.072C38.5322 130.911 38.4046 130.752 38.2665 130.59C38.0425 130.326 37.8318 130.054 37.6212 129.782C37.5197 129.653 37.4154 129.534 37.314 129.405C37.0096 129.017 36.7081 128.619 36.4066 128.22C36.3157 128.094 36.222 127.978 36.1417 127.855C35.9339 127.572 35.7183 127.276 35.5134 126.983C35.407 126.83 35.2929 126.663 35.1865 126.51C35.0076 126.247 34.8181 125.98 34.6392 125.717C34.5251 125.55 34.4216 125.386 34.3075 125.22C34.1286 124.956 33.9525 124.682 33.7764 124.408C33.6729 124.245 33.5771 124.094 33.4736 123.93C33.282 123.629 33.1039 123.321 32.9123 123.02C32.8348 122.886 32.7545 122.762 32.6743 122.639C32.4158 122.207 32.1602 121.764 31.9046 121.321C31.8891 121.294 31.8736 121.268 31.8687 121.244C31.6286 120.828 31.4019 120.404 31.183 119.994C31.1083 119.849 31.0337 119.704 30.9563 119.57C30.7993 119.267 30.6423 118.964 30.4853 118.662C30.4058 118.493 30.3128 118.332 30.2333 118.163C30.0946 117.876 29.9454 117.587 29.8067 117.3C29.7272 117.132 29.6399 116.949 29.5604 116.781C29.4246 116.483 29.2859 116.197 29.1606 115.902C29.0811 115.734 29.0122 115.568 28.9326 115.399C28.7842 115.064 28.6463 114.733 28.5006 114.387C28.4443 114.259 28.388 114.13 28.3423 114.005C28.1481 113.544 27.9645 113.087 27.7943 112.622C27.7486 112.496 27.7029 112.371 27.6543 112.255C27.5192 111.913 27.3976 111.563 27.2731 111.223C27.207 111.047 27.1515 110.873 27.0853 110.697C26.9841 110.397 26.8828 110.098 26.7816 109.799C26.7183 109.612 26.655 109.425 26.5946 109.227C26.5039 108.931 26.4133 108.634 26.3198 108.348C26.2565 108.161 26.2038 107.977 26.1539 107.782C26.0583 107.462 25.9733 107.144 25.8778 106.824C25.83 106.663 25.7822 106.503 25.7372 106.332C25.6044 105.855 25.4794 105.39 25.3678 104.918C25.3629 104.894 25.3579 104.87 25.353 104.846C25.2414 104.374 25.1298 103.902 25.0182 103.429C24.9809 103.272 24.9437 103.115 24.9199 102.949C24.8512 102.614 24.7796 102.288 24.7109 101.952C24.6687 101.771 24.64 101.582 24.6085 101.403C24.5447 101.091 24.4942 100.771 24.4332 100.449C24.4045 100.26 24.3624 100.078 24.3337 99.8893C24.2727 99.5667 24.2251 99.2365 24.1775 98.9062C24.1566 98.7305 24.1222 98.5625 24.1013 98.3868C24.0467 97.9979 23.995 97.5985 23.9432 97.199C23.9264 97.0925 23.9202 96.9887 23.9034 96.8822C23.8454 96.379 23.7874 95.8759 23.7401 95.3755C23.7318 95.2372 23.7206 95.1095 23.7017 94.9683C23.6732 94.6092 23.637 94.2366 23.6085 93.8774C23.601 93.6939 23.5828 93.5076 23.5753 93.3241C23.5594 93.0024 23.5408 92.6912 23.5249 92.3694C23.5202 92.1753 23.5049 91.9785 23.5002 91.7844C23.4921 91.4761 23.4763 91.1543 23.4682 90.8459C23.4635 90.6519 23.4588 90.4578 23.4512 90.2744C23.4488 89.9448 23.4492 89.6047 23.4496 89.2646C23.4498 89.0946 23.45 88.9245 23.4474 88.7651C23.4501 88.2895 23.4633 87.8167 23.4766 87.344C23.4851 87.3123 23.4802 87.2883 23.4781 87.2537C23.4999 86.7492 23.5188 86.2553 23.5406 85.7508C23.5514 85.5836 23.5593 85.427 23.5701 85.2598C23.5945 84.9148 23.6161 84.5803 23.6405 84.2353C23.657 84.0469 23.6734 83.8586 23.6927 83.6596C23.722 83.3386 23.7513 83.0176 23.7912 82.6994C23.8105 82.5004 23.827 82.3121 23.8568 82.1159C23.8967 81.7978 23.9289 81.4662 23.9716 81.1374C23.9986 80.9519 24.0123 80.7741 24.0393 80.5885C24.0934 80.2174 24.1503 79.8358 24.2043 79.4647C24.2278 79.3349 24.2406 79.2022 24.2613 79.083C24.3388 78.5821 24.4297 78.0735 24.5284 77.5783C24.5595 77.4619 24.5696 77.3398 24.6008 77.2234C24.6711 76.834 24.7491 76.458 24.83 76.0715C24.8782 75.8916 24.9024 75.7166 24.9506 75.5368C25.0279 75.2059 25.0918 74.8828 25.1691 74.552C25.2202 74.3616 25.2712 74.1711 25.3117 73.9778C25.3967 73.6604 25.4712 73.3401 25.5562 73.0227C25.6073 72.8323 25.6555 72.6524 25.7065 72.4619C25.7972 72.1234 25.8908 71.7742 25.9921 71.4385C26.0346 71.2797 26.08 71.1105 26.1225 70.9517C26.2692 70.4467 26.4236 69.9551 26.5914 69.4557C29.335 60.9939 33.6567 53.4991 39.0903 47.187C44.4696 40.9509 50.9404 35.8465 58.0984 32.0717C65.1892 28.3355 72.9679 25.8837 81.0271 24.9245C89.0488 23.978 97.3913 24.501 105.655 26.7152C106.12 26.8399 106.586 26.9647 107.046 27.1106C107.183 27.1474 107.321 27.1843 107.466 27.2346C107.805 27.3253 108.138 27.4372 108.473 27.5385C108.622 27.5782 108.756 27.6256 108.902 27.6759C109.287 27.8019 109.684 27.9308 110.067 28.0675C110.13 28.0845 110.204 28.1043 110.265 28.1319C110.722 28.2884 111.166 28.4526 111.609 28.6169C111.726 28.648 111.836 28.7004 111.95 28.7422C112.291 28.8675 112.628 29.0033 112.966 29.1392C113.101 29.1867 113.233 29.2447 113.365 29.3027C113.724 29.4442 114.069 29.5935 114.425 29.7457C114.507 29.7789 114.6 29.815 114.681 29.8483C115.119 30.0337 115.554 30.2297 115.99 30.4256C116.071 30.4589 116.14 30.4999 116.222 30.5332C116.575 30.6959 116.928 30.8586 117.279 31.0319C117.4 31.0871 117.518 31.1528 117.629 31.2052C117.958 31.3728 118.291 31.5298 118.617 31.708C118.707 31.7547 118.807 31.8042 118.896 31.8509C119.326 32.068 119.742 32.2929 120.158 32.5178C120.19 32.5263 120.219 32.5454 120.247 32.5645C120.635 32.7703 121.008 32.9838 121.379 33.2079C121.487 33.2709 121.595 33.3338 121.703 33.3967C122.016 33.5827 122.321 33.7552 122.631 33.9517C122.729 34.0118 122.837 34.0748 122.934 34.1348C123.734 34.6213 124.506 35.1232 125.273 35.6462C125.378 35.7197 125.483 35.7932 125.599 35.8696C125.878 36.0576 126.153 36.2562 126.432 36.4442C126.547 36.5206 126.671 36.6103 126.783 36.6973C127.088 36.915 127.393 37.1327 127.694 37.3609C127.76 37.4125 127.836 37.4669 127.902 37.5185C128.272 37.7878 128.628 38.0648 128.982 38.3524C129.077 38.4231 129.179 38.5072 129.273 38.5779C129.546 38.787 129.806 39.004 130.076 39.2238C130.188 39.3107 130.298 39.4082 130.419 39.5085C130.689 39.7283 130.956 39.9586 131.234 40.1918C131.318 40.2596 131.402 40.3275 131.483 40.4059C131.834 40.7041 132.171 41.01 132.509 41.316C132.572 41.3781 132.637 41.4297 132.7 41.4919C132.972 41.7462 133.255 42.0034 133.527 42.2577C133.626 42.3524 133.715 42.4443 133.817 42.5283C134.078 42.7799 134.332 43.0179 134.583 43.2666C134.664 43.345 134.735 43.4206 134.816 43.499C135.148 43.8261 135.477 44.1638 135.798 44.4881C135.816 44.5043 135.832 44.5311 135.85 44.5474C136.153 44.8554 136.454 45.174 136.743 45.4897C136.821 45.5787 136.9 45.6677 136.981 45.7462C137.226 46.016 137.461 46.283 137.695 46.55C137.773 46.639 137.844 46.7146 137.922 46.8036C138.529 47.4993 139.123 48.2028 139.701 48.9246C139.779 49.0136 139.855 49.1132 139.93 49.2128C140.141 49.4847 140.351 49.7566 140.562 50.0285C140.645 50.1415 140.731 50.2439 140.814 50.3569C141.04 50.6557 141.267 50.9544 141.49 51.2637C141.539 51.3337 141.589 51.4036 141.641 51.4629C141.906 51.8287 142.17 52.1945 142.422 52.5681C142.497 52.6677 142.562 52.7644 142.635 52.8746C142.821 53.1514 143.008 53.4282 143.195 53.7051C143.275 53.8286 143.363 53.9656 143.443 54.0892C143.619 54.3632 143.806 54.64 143.982 54.914C144.055 55.0242 144.127 55.1343 144.189 55.2417C144.427 55.623 144.665 56.0043 144.9 56.3962C144.947 56.4767 145.001 56.5706 145.047 56.6511C145.236 56.9625 145.414 57.271 145.59 57.5902C145.657 57.7215 145.737 57.8451 145.804 57.9764C145.964 58.2687 146.134 58.5638 146.294 58.8562C146.353 58.9741 146.415 59.0814 146.474 59.1993C146.696 59.5989 146.904 60.0063 147.113 60.4137C147.136 60.4539 147.148 60.4914 147.172 60.5316C147.357 60.8987 147.539 61.2765 147.724 61.6436C147.783 61.7615 147.84 61.89 147.899 62.0079C148.042 62.3185 148.186 62.6292 148.329 62.9398C148.389 63.0577 148.434 63.1834 148.493 63.3013C148.678 63.7136 148.852 64.123 149.025 64.5325C149.025 64.5325 149.03 64.5565 149.038 64.5699C149.22 64.9928 149.398 65.4262 149.566 65.8569C149.615 65.9719 149.661 66.0976 149.709 66.2126C149.839 66.531 149.956 66.8572 150.076 67.1727C150.119 67.3089 150.175 67.4374 150.218 67.5737C150.35 67.9266 150.479 68.2902 150.598 68.6509C150.624 68.7257 150.657 68.8139 150.682 68.8888C150.826 69.3243 150.981 69.7627 151.111 70.2059C151.149 70.3182 151.177 70.4276 151.215 70.5398C151.318 70.8737 151.421 71.2076 151.522 71.552C151.562 71.6988 151.605 71.8351 151.645 71.9819C151.738 72.3129 151.828 72.6545 151.92 72.9856C151.955 73.1084 151.983 73.2178 152.018 73.3406C152.135 73.7916 152.255 74.2321 152.362 74.6803C152.385 74.7657 152.407 74.8511 152.416 74.9442C152.5 75.307 152.582 75.6804 152.666 76.0432C152.695 76.1871 152.725 76.3311 152.765 76.4779C152.837 76.8033 152.905 77.1392 152.963 77.4724C152.996 77.6058 153.015 77.7469 153.047 77.8803C153.137 78.3468 153.22 78.7999 153.287 79.2713C153.378 79.8176 153.46 80.361 153.53 80.9016C153.554 81.0667 153.575 81.2424 153.599 81.4076C153.646 81.783 153.7 82.1719 153.744 82.5579C153.767 82.7682 153.787 82.9891 153.81 83.1994C153.845 83.5374 153.879 83.8754 153.91 84.224C153.927 84.4555 153.945 84.6869 153.962 84.9184C153.989 85.243 154.015 85.5676 154.031 85.8894C154.045 86.1314 154.06 86.3735 154.074 86.6155C154.09 86.9373 154.109 87.2485 154.114 87.5674C154.126 87.82 154.127 88.0698 154.142 88.3119C154.147 88.6308 154.152 88.9497 154.157 89.2687C154.158 89.5185 154.162 89.7577 154.163 90.0075C154.166 90.337 154.158 90.6637 154.147 91.0009C154.14 91.2373 154.133 91.4737 154.127 91.71C154.121 92.0713 154.104 92.4297 154.085 92.7987C154.073 93.0111 154.072 93.2263 154.061 93.4387C154.051 93.5608 154.043 93.6722 154.033 93.7943C154.011 94.1739 153.981 94.54 153.959 94.9196C153.94 95.0734 153.935 95.2195 153.916 95.3733C153.884 95.75 153.851 96.1268 153.807 96.5007C153.797 96.6228 153.787 96.7448 153.766 96.864C153.713 97.36 153.652 97.8426 153.588 98.3357C153.565 98.4204 153.566 98.5001 153.554 98.5876C153.499 99.0038 153.437 99.4067 153.371 99.8201C153.342 99.971 153.324 100.125 153.295 100.276C153.233 100.633 153.171 100.991 153.109 101.349C153.08 101.5 153.054 101.64 153.025 101.791C152.926 102.286 152.83 102.771 152.731 103.266C152.619 103.814 152.487 104.346 152.367 104.881L152.387 104.932Z" fill="#5B6475"/>
<path d="M94.3872 16.5403C89.9211 16.1942 85.4137 16.2565 80.9734 16.7451C76.512 17.2281 72.0726 18.1365 67.7888 19.4382C63.4329 20.7546 59.1626 22.5135 55.088 24.6423C50.9866 26.7867 47.0752 29.3222 43.488 32.1714C39.8874 35.0283 36.5679 38.2327 33.5974 41.7007C30.5944 45.2054 27.9262 49.0266 25.6451 53.0535C23.3307 57.1623 21.3999 61.5327 19.9049 66.0538C18.3958 70.6278 17.3466 75.3478 16.7729 80.0704C16.1936 84.8142 16.1046 89.6327 16.4764 94.3819C16.8686 99.1819 17.7392 103.974 19.0934 108.612C20.47 113.336 22.3371 117.964 24.6625 122.363C27.0005 126.8 29.7918 130.984 32.961 134.816C36.1196 138.645 39.6823 142.151 43.539 145.237C47.414 148.339 51.6436 151.049 56.0961 153.308C60.5909 155.578 65.3643 157.402 70.2843 158.72C75.2043 160.038 80.2498 160.846 85.2776 161.127C90.2603 161.407 95.281 161.165 100.188 160.416C105.081 159.675 109.92 158.419 114.559 156.68C119.209 154.943 123.721 152.705 127.972 150.045C132.186 147.398 136.114 144.334 139.671 140.921C143.163 137.581 146.313 133.866 149.052 129.905C151.759 125.981 154.081 121.761 155.951 117.363C157.287 114.24 158.404 111.001 159.292 107.689C159.649 106.356 159.964 105.011 160.25 103.648C161.216 98.9849 161.739 94.2375 161.779 89.5192C161.828 84.894 161.417 80.2478 160.568 75.7112C159.73 71.2225 158.45 66.7742 156.768 62.5132C155.086 58.2522 152.966 54.1007 150.486 50.1929C148.022 46.3119 145.2 42.6641 142.089 39.3356C139.022 36.0529 135.629 33.0571 132.017 30.411C128.414 27.7783 124.544 25.46 120.503 23.5267C116.441 21.5878 112.158 20.0092 107.756 18.8298C103.355 17.6504 98.8561 16.8759 94.3689 16.5241L94.3872 16.5403ZM107.023 21.6499C115.625 23.9549 123.577 27.7979 130.671 33.0667C137.573 38.2047 143.416 44.4994 148.039 51.7938C152.726 59.185 155.939 67.2581 157.596 75.7993C159.345 84.8071 159.265 93.9488 157.378 102.98C155.448 112.216 151.725 120.778 146.335 128.452C141.01 136.006 134.319 142.356 126.427 147.306C118.411 152.337 109.618 155.651 100.296 157.134C90.5557 158.697 80.7491 158.178 71.1418 155.604C61.5346 153.03 52.7826 148.576 45.1286 142.351C37.7996 136.396 31.8395 129.14 27.4155 120.765C23.0556 112.532 20.4251 103.684 19.6021 94.4823C18.7602 85.1391 19.8276 75.8651 22.7736 66.9018C25.6552 58.1367 30.1573 50.1801 36.1753 43.2533C41.8682 36.6931 48.6971 31.3104 56.4552 27.2427C64.1059 23.237 72.3137 20.7073 80.8598 19.7085C89.6401 18.6818 98.4453 19.3401 107.047 21.645L107.023 21.6499Z" fill="#B8C2D3"/>
<g opacity="0.44">
<path d="M106.036 25.5472C140.952 34.903 161.658 70.7979 152.296 105.735C142.938 140.662 107.045 161.403 72.1394 152.05C37.2231 142.694 16.517 106.799 25.8785 71.8617C35.2399 36.9243 71.13 16.1943 106.036 25.5472Z" fill="#CED0D8"/>
</g>
<path d="M164.098 103L161.149 114.004L173.846 117.406L176.795 106.403L164.098 103Z" fill="#84949B"/>
<path d="M184.876 102.059C185.039 105.641 184.6 109.731 183.466 113.963C182.332 118.195 180.6 122.12 178.601 125.179L226.478 135.978C229.384 136.348 232.236 137.09 234.949 138.179L280.221 156.332C281.224 156.736 282.254 157.081 283.302 157.361L285.968 158.076C293.502 160.094 301.074 158.71 304.913 154.624C308.657 150.638 310.154 145.051 308.905 139.726C307.623 134.268 301.758 129.283 294.224 127.265L291.558 126.55C290.51 126.27 289.446 126.052 288.375 125.902L240.092 118.986C237.187 118.57 234.357 117.79 231.655 116.657L184.857 102.088L184.876 102.059Z" fill="#394A4F"/>
<path d="M184.875 102.059L184.143 101.829C176.075 101.254 169.507 104.564 168.064 109.949C166.621 115.335 170.644 121.482 177.929 125.021L178.604 125.168C180.59 122.117 182.312 118.269 183.469 113.952C184.626 109.635 185.041 105.63 184.878 102.048L184.875 102.059Z" fill="#B8C2D3"/>
</svg>
