<svg width="94" height="119" viewBox="0 0 94 119" fill="none" xmlns="http://www.w3.org/2000/svg">
<g id="Frame 7" clip-path="url(#clip0_1158_810)" filter="url(#filter0_d_1158_810)">
<rect width="89.1929" height="115" transform="translate(2.5)" fill="#AACDE8"/>
<g id="girl er">
<g id="boy hd">
<g id="boy">
<path id="Vector" d="M16.0417 32.0842C16.8149 30.0741 17.8309 28.1961 19.0579 26.5088C20.2976 24.8142 18.4617 24.3044 20.1187 21.1536C21.0109 19.4569 22.7323 18.9203 23.9976 18.4875C24.0231 18.3774 23.7995 16.3688 26.1234 14.1247C28.9761 11.3701 39.3695 13.7764 41.6934 12.6704L41.7363 12.65C44.0663 11.541 48.041 9.64921 49.9527 9.54714C50.2083 9.53246 50.4639 9.52513 50.7195 9.51779C52.3107 9.47378 53.9083 9.57648 55.4803 9.8039C57.2249 10.0607 59.1224 10.2463 62.8406 12.6704C66.5588 15.0945 71.9038 18.2444 74.46 21.88C77.0162 25.5156 79.6059 30.4488 80.1044 31.3364C81.0374 33.0164 81.7275 34.9605 82.1557 37.1246C82.571 39.1934 82.718 41.3575 82.5966 43.5583C82.5327 44.644 82.4049 45.7297 82.2196 46.7935C82.0406 47.7838 81.7786 48.8256 81.4399 49.882C81.4399 49.882 79.4088 55.5365 78.7894 59.311C77.5268 67.0047 80.1044 79.2322 80.1044 79.2322L83.5433 100.738L20.8366 102.549C20.8366 102.549 21.2992 84.693 20.1187 73.3464C19.2 64.5164 16.3803 50.9231 16.3803 50.9231C15.4601 49.1258 14.8275 47.101 14.5144 44.9149C13.9073 40.748 14.4441 36.3097 16.0672 32.0842H16.0417Z" fill="#25211D"/>
<g id="Vector 81">
<path d="M40.4299 86.8911C40.7735 89.4106 42.9036 95.6178 48.6756 100.29C51.6532 98.8015 57.8145 93.2128 58.6391 86.8911H40.4299Z" fill="#B09F9A"/>
<path d="M40.4299 86.8911C40.7735 89.4106 42.9036 95.6178 48.6756 100.29M40.4299 86.8911L35.62 91.3575L33.215 102.008C35.3909 101.321 40.6361 98.3663 41.4606 97.5418L40.4299 102.008L47.9885 104.757M40.4299 86.8911H58.6391M48.6756 100.29C51.6532 98.8015 57.8145 93.2128 58.6391 86.8911M48.6756 100.29L47.9885 104.757M58.6391 86.8911C59.6698 87.6928 62.2809 90.5329 64.4798 91.3575C63.7926 94.4496 62.3497 101.252 62.0748 103.726L54.1727 102.008V104.757C52.1113 105.673 47.851 107.849 47.3013 109.223M47.3013 109.223V118.156M47.3013 109.223L47.9885 104.757" stroke="#656565" stroke-width="0.336698" stroke-linecap="round"/>
</g>
<path id="Vector 105" d="M14.2717 60.4429C14.2428 56.0032 16.7618 49.3503 16.7618 49.3503L22.6477 69.7244L23.3268 102.776C23.3268 102.776 16.686 96.8423 15.1772 91.683C13.2107 84.9588 18.9404 81.0062 18.3465 74.0255C17.877 68.5076 14.3076 65.9807 14.2717 60.4429Z" fill="#25211D"/>
<path id="Vector 106" d="M82.6415 60.6622C82.4161 56.2282 79.5203 49.7305 79.5203 49.7305L74.8107 70.4081L76.025 103.444C76.025 103.444 82.3152 97.1402 83.5261 91.903C85.1043 85.0772 79.1577 81.4591 79.351 74.4559C79.5039 68.9201 82.9226 66.193 82.6415 60.6622Z" fill="#25211D"/>
<g id="Group">
<g id="Vector_2">
<path fill-rule="evenodd" clip-rule="evenodd" d="M89.8576 109.385C89.8657 109.398 89.8738 109.411 89.8819 109.424L89.8622 109.383C89.8607 109.384 89.8591 109.384 89.8576 109.385ZM86.0386 111.213C86.0451 111.209 86.0499 111.206 86.0551 111.203C86.0593 111.201 86.0637 111.2 86.0692 111.2C86.0591 111.204 86.0487 111.208 86.0386 111.213ZM57.6512 82.0667C52.6882 85.6175 44.8616 85.4711 41.5686 84.954C37.815 84.3645 29.4684 77.3483 23.2445 68.6955C23.1921 68.5103 23.0181 68.3663 22.874 68.1399C22.7299 67.9136 20.6102 67.9136 19.5771 67.404C18.5175 66.8814 17.8149 65.9089 17.0812 64.9762C16.354 64.0435 15.771 63.0353 15.3517 61.9723C15.1421 61.458 14.9717 60.9025 14.8407 60.3126C14.7359 59.812 14.6639 59.2634 14.6245 58.6393C14.559 57.5214 14.7032 56.3898 15.0307 55.3816C15.3714 54.3255 15.9413 53.4065 16.6946 52.7413C17.0943 52.3915 17.5463 52.1172 18.0507 51.9114C18.5813 51.6988 19.1513 51.5754 19.7932 51.5342H20.1404C21.0052 51.5548 21.9027 51.8566 22.7346 52.3778C22.7548 52.2702 22.7755 52.162 22.7963 52.0536C22.8432 51.8093 22.8903 51.5638 22.9312 51.3216C23.2587 49.223 23.4028 47.0696 23.5404 44.9847L23.5454 44.9076C23.5961 44.1236 23.6473 43.3336 23.7107 42.5501C23.8417 40.9041 24.0514 38.7438 24.5296 36.6178C24.8899 35.0198 25.3616 33.511 25.938 32.1394C26.5342 30.7266 27.222 29.4236 27.9754 28.2645C28.7549 27.0712 29.6328 25.9671 30.5827 24.9658C31.0478 24.4788 31.5391 24.0056 32.0566 23.5461C32.3252 23.7245 32.6004 23.8959 32.8755 24.0536C33.4192 24.3691 33.9892 24.6366 34.5722 24.8698C35.7383 25.3361 36.9567 25.631 38.1883 25.823C39.4592 26.0219 41.0585 27.5935 42.3425 27.6209C42.7953 27.3946 44.1711 26.1284 45.2431 26.1095C45.4813 26.1053 45.7195 26.1011 45.9577 26.0974C48.8336 26.0425 51.7422 26.0082 54.5722 26.6323C55.2732 26.7969 55.961 26.9958 56.6358 27.2427C57.3302 27.5033 58.0115 27.8188 58.6666 28.1754C59.3872 28.5732 60.075 29.0121 60.7367 29.499C61.4114 29.9997 62.0534 30.5483 62.6627 31.1312C63.344 31.7965 63.9794 32.5029 64.569 33.2573C65.1651 34.0117 65.7089 34.8141 66.2002 35.6439C66.7439 36.556 67.2287 37.5093 67.6545 38.4832C68.0803 39.4708 68.4472 40.4789 68.7551 41.5145C69.1154 42.7421 69.3839 43.9834 69.5739 45.2453C69.6656 45.842 69.7311 46.4386 69.7836 47.0421C69.836 47.6045 69.8818 48.1737 69.9211 48.743C69.9773 49.5345 70.0278 50.329 70.0782 51.1226C70.1042 51.5323 70.1302 51.9417 70.157 52.3503C70.2487 53.5917 70.3535 54.833 70.5042 56.0675C70.5762 56.6298 70.6614 57.1922 70.7531 57.7546C70.7898 57.7299 70.8265 57.703 70.8632 57.6761C70.9182 57.6358 70.9732 57.5955 71.0282 57.5625C71.9388 57.0139 72.9084 56.7327 73.8386 56.7533C73.9565 56.7533 74.0679 56.7601 74.1858 56.7738C74.8147 56.8424 75.3781 56.9933 75.9022 57.2333C76.4 57.4665 76.8389 57.7683 77.2189 58.1318C77.9329 58.8244 78.4701 59.764 78.7649 60.8476C79.0466 61.8763 79.1383 63.001 79.027 64.1189C78.968 64.7362 78.8697 65.2779 78.7387 65.7786C78.588 66.341 78.3915 66.8965 78.1622 67.4108C77.6906 68.4533 77.0682 69.434 76.3018 70.3255C75.5353 71.224 74.664 71.9989 73.7076 72.6367C72.7118 73.2951 71.6768 73.7958 70.6352 74.1112C69.5936 74.4267 68.5716 74.5707 67.5955 74.5502C67.553 74.5502 67.5104 74.5484 67.4678 74.5467C67.4252 74.545 67.3826 74.5433 67.3401 74.5433C66.9732 74.5227 66.6194 74.4747 66.2854 74.4198C66.2657 74.461 66.2444 74.5039 66.2231 74.5467C66.2018 74.5896 66.1805 74.6324 66.1609 74.6736C63.3957 77.4214 60.2323 80.8171 57.6512 82.0667Z" fill="#DABAAB"/>
<path fill-rule="evenodd" clip-rule="evenodd" d="M85.0669 103.608C83.3178 101.99 81.2543 100.488 78.9287 99.1572C76.9503 98.0187 74.6837 96.9626 71.9978 95.9133C70.9103 95.4881 69.7508 95.0629 68.3489 94.5828L67.268 94.2193L66.1871 93.849C66.0364 93.7941 65.8792 93.7461 65.722 93.6981L65.7285 93.6912C65.1062 93.4786 64.4838 93.2729 63.8549 93.074C63.213 92.8751 62.5775 92.6831 61.9683 92.5254C61.9421 92.5185 61.9159 92.5116 61.8897 92.5116C61.7586 92.5116 61.6342 92.5802 61.5556 92.6899C61.5228 92.7037 61.4966 92.7311 61.4639 92.7654C61.4311 92.8065 61.3918 92.8408 61.3525 92.882C60.9529 92.6556 60.5729 92.4088 60.2323 92.1276C59.8196 91.7641 59.4527 91.3595 59.1448 90.9274C58.7845 90.4062 58.4832 89.8232 58.2342 89.1786C57.9329 88.3487 57.7298 87.4435 57.6119 86.4079C57.4743 85.0843 57.4874 83.6783 57.6512 82.0667C52.6882 85.6175 44.8616 85.4711 41.5686 84.954C41.6669 86.2913 41.6472 87.4298 41.5031 88.4585C41.4572 88.7465 41.4048 89.0208 41.3393 89.2814C41.2476 89.6586 41.1362 90.0221 40.9987 90.3513C40.8152 90.7765 40.586 91.1743 40.3239 91.5241C40.075 91.8327 39.7999 92.1139 39.4985 92.347C39.1775 92.5871 38.8238 92.7928 38.4373 92.9643C37.9918 93.1494 37.4939 93.2729 36.9567 93.362C36.9567 93.314 36.9436 93.2592 36.9174 93.218C36.8585 93.0603 36.7209 92.9505 36.5702 92.9437C35.6597 92.9917 34.7556 93.0809 33.8516 93.2112C33.8516 93.218 33.845 93.2317 33.8385 93.2386C29.279 93.8833 24.8047 95.4812 20.7562 97.957C19.5967 98.6634 18.4372 99.4726 17.3104 100.364C16.1837 101.263 15.1224 102.216 14.166 103.203C13.1375 104.266 12.1941 105.446 11.3491 106.701C10.7136 107.654 10.1765 108.621 9.74409 109.588C11.1329 110.219 12.5479 110.789 13.9826 111.296C15.653 111.893 17.3432 112.421 19.0464 112.887C22.4071 113.813 25.8201 114.533 29.2528 115.102C30.1044 115.246 30.9561 115.377 31.8142 115.493C37.3957 116.289 43.0229 116.707 48.6567 116.796C54.4216 116.885 60.193 116.639 65.9185 115.966C69.4298 115.555 72.928 114.986 76.3804 114.19C79.6582 113.438 82.9101 112.496 86.0386 111.213C86.0451 111.209 86.0499 111.206 86.0551 111.203C86.0593 111.201 86.0637 111.2 86.0692 111.2C87.2635 110.703 88.4444 110.166 89.5805 109.54C89.6139 109.523 89.6473 109.505 89.681 109.486C89.7071 109.471 89.7335 109.456 89.7602 109.441C89.7857 109.426 89.8115 109.411 89.8377 109.396L89.8576 109.385C88.513 107.254 86.9032 105.306 85.0669 103.608ZM29.3707 114.883H29.3904H29.3969C29.4821 114.897 29.5607 114.91 29.6459 114.924L29.2987 114.862L29.338 114.883H29.3576H29.3642H29.3707ZM33.2292 94.1439C33.1375 94.1644 33.0458 94.1782 32.9541 94.1919V94.1987C33.072 94.1782 33.1965 94.1644 33.3144 94.1439H33.2751H33.2686H33.2555H33.2489H33.2292ZM88.5913 108.868C88.7486 109.115 88.8927 109.348 89.0303 109.588L89.0565 109.575C88.9058 109.342 88.7486 109.101 88.5913 108.868Z" fill="#D2B6A8"/>
</g>
<path id="Vector_3" d="M58.749 27.9966C58.749 27.9966 58.7693 28.0101 58.7761 28.0101C58.7693 28.0101 58.7558 27.9966 58.749 27.9966Z" fill="#809BC4"/>
<path id="Vector_4" d="M54.4682 26.4635C54.4682 26.4635 54.4749 26.4635 54.4816 26.4635C54.4883 26.4635 54.495 26.4635 54.5017 26.4635C54.4883 26.4635 54.4816 26.4635 54.4682 26.4568V26.4635Z" fill="#809BC4"/>
<path id="Vector 82" d="M21.5158 43.4671C21.8176 37.4303 29.4674 26.0362 45.059 26.0362C60.6791 26.0362 57.2835 23.8478 55.2461 22.1877C48.5302 20.3767 34.0118 17.8413 29.6654 22.1877C24.2323 27.6208 19.9311 36.4491 21.5158 43.4671Z" fill="#25211D"/>
</g>
<path id="Vector 75" d="M49.7624 45.6409C51.5408 44.4232 56.393 42.7961 61.5738 46.0289" stroke="#363029" stroke-width="2.06142" stroke-linecap="round"/>
<path id="Vector 76" d="M37.5251 45.5003C35.7467 44.2826 30.8945 42.6555 25.7137 45.8883" stroke="#363029" stroke-width="2.06142" stroke-linecap="round"/>
</g>
<g id="Ellipse 52">
<path d="M58.9827 53.2207C58.9827 55.4977 57.906 57.3436 56.5777 57.3436C55.2495 57.3436 54.1728 55.4977 54.1728 53.2207C54.1728 50.9438 55.2495 49.0979 56.5777 49.0979C57.2929 49.0979 57.9351 49.6329 58.3756 50.4823C58.4992 50.7206 58.607 50.9838 58.696 51.2668C58.8789 51.8483 58.9827 52.5137 58.9827 53.2207Z" fill="#25211D"/>
<path d="M58.9827 50.2559C58.7616 50.3789 58.3756 50.4823 58.3756 50.4823C58.4992 50.7206 58.607 50.9838 58.696 51.2668C58.696 51.2668 59.1471 50.9859 59.3209 50.7086C59.5145 50.3998 59.5472 49.8031 59.5472 49.8031C59.5472 49.8031 59.2297 50.1185 58.9827 50.2559Z" fill="#25211D"/>
</g>
<g id="Ellipse 53">
<path d="M30.6826 53.0205C30.6826 55.2975 31.7594 57.1434 33.0876 57.1434C34.4159 57.1434 35.4926 55.2975 35.4926 53.0205C35.4926 50.7436 34.4159 48.8977 33.0876 48.8977C32.3725 48.8977 31.7303 49.4328 31.2898 50.2821C31.1661 50.5204 31.0584 50.7836 30.9694 51.0666C30.7864 51.6481 30.6826 52.3135 30.6826 53.0205Z" fill="#25211D"/>
<path d="M30.6826 50.0557C30.9038 50.1787 31.2898 50.2821 31.2898 50.2821C31.1661 50.5204 31.0584 50.7836 30.9694 51.0666C30.9694 51.0666 30.5183 50.7857 30.3445 50.5084C30.1509 50.1996 30.1181 49.6029 30.1181 49.6029C30.1181 49.6029 30.4357 49.9183 30.6826 50.0557Z" fill="#25211D"/>
</g>
<path id="Vector 77" d="M40.7736 58.375C40.7736 59.8638 41.6668 62.8414 45.24 62.8414" stroke="#25211D" stroke-width="1.37428" stroke-linecap="round"/>
<path id="Vector 78" d="M39.7424 70.4005C40.7579 71.7644 49.3602 72.6701 52.5025 69.4825" stroke="#62171B" stroke-width="1.37428" stroke-linecap="round"/>
<g id="Vector 80">
<path d="M40.4308 86.8911L35.6208 91.3575L35.28 92.8176L32.1847 102.008C36.9947 99.9467 40.6365 96.9921 41.4611 96.1675L40.0868 99.2596L47.9893 104.757L48.9751 102.695L43.1789 95.4803L40.4308 86.8911Z" fill="#DBD6DD"/>
<path d="M58.6399 86.8911C57.9524 92.0447 56.2346 94.4496 54.8603 96.1675L48.9751 102.695L47.9893 104.757L47.3022 109.223C47.8519 107.849 52.7989 104.299 54.8603 103.382L54.1735 99.2596L62.7624 102.695C62.4188 100.29 62.7618 96.1361 64.0299 93.044C64.1978 92.2628 64.3527 91.9333 64.4806 91.3575C62.2818 90.5329 59.6706 87.6928 58.6399 86.8911Z" fill="#D9D7DA"/>
<path d="M62.7624 102.695L54.1735 99.2596L54.8603 103.382C52.7989 104.299 47.8519 107.849 47.3022 109.223L47.3021 124.34C62.0756 125.448 101.12 126.008 95.0437 112.965C85.7622 93.044 70.4787 94.3037 64.0299 93.044C62.7618 96.1361 62.4188 100.29 62.7624 102.695Z" fill="#E0D9DD"/>
<path d="M47.3021 124.34L47.3022 109.223L47.9893 104.757L40.0868 99.2596L41.4611 96.1675C40.6365 96.9921 36.9947 99.9467 32.1847 102.008L35.28 92.8176C23.0554 93.044 8.6094 100.461 2.90777 119.757C-1.55907 134.874 31.8088 123.178 47.3021 124.34Z" fill="#E0D9DD"/>
<path d="M47.3021 109.223C47.8519 107.849 52.7989 104.299 54.8603 103.382L54.1735 99.2596L62.7624 102.695C62.4189 100.29 62.7618 96.1361 64.0299 93.044M47.3021 109.223L47.3021 124.34M47.3021 109.223L47.9893 104.757M47.3021 124.34C62.0756 125.448 101.12 126.008 95.0437 112.965C85.7622 93.044 70.4787 94.3037 64.0299 93.044M47.3021 124.34C31.8088 123.178 -1.55908 134.874 2.90777 119.757C8.6094 100.461 23.0554 93.044 35.28 92.8176M47.9893 104.757L40.0868 99.2596L41.4611 96.1675C40.6365 96.992 36.9947 99.9467 32.1847 102.008L35.28 92.8176M47.9893 104.757L48.9751 102.695M64.0299 93.044C64.1978 92.2628 64.3527 91.9333 64.4806 91.3575C62.2818 90.5329 59.6706 87.6928 58.6399 86.8911C57.9524 92.0447 56.2346 94.4496 54.8603 96.1675L48.9751 102.695M35.28 92.8176L35.6208 91.3575L40.4308 86.8911L43.1789 95.4803L48.9751 102.695" stroke="#656565" stroke-width="0.135827" stroke-linecap="round"/>
</g>
</g>
<path id="Vector 83" d="M31.7028 32.3719C26.7225 37.1259 23.7271 43.4229 23.1004 48.8975L18.5728 46.8601L22.9264 30.5609L33.7402 23.5432L52.3032 22.6377L69.0551 28.5235L74.7146 44.1436L70.8227 57.4999C71.3322 50.4502 67.2559 42.8965 64.1987 39.3717C61.1415 35.8468 52.1851 28.5235 47.7756 28.5235C43.0805 28.5235 38.5825 25.8049 31.7028 32.3719Z" fill="#25211D"/>
<path id="Vector 84" d="M39.1555 26.7575C39.1555 25.9427 39.0412 25.0525 39.3117 24.2736C39.6665 23.2517 40.1475 22.1863 40.7168 21.2646C41.6931 19.684 43.1848 18.4903 44.8472 17.6878C46.557 16.8624 48.9684 17.0611 50.7943 17.3046C52.6336 17.5498 54.3133 18.5167 55.691 19.7884C56.8306 20.8403 57.7451 22.0687 58.8278 23.1807C59.8447 24.225 60.5052 25.4909 61.4536 26.5659C64.1234 29.5916 67.304 31.9741 69.3027 35.5717" stroke="#2E2924" stroke-width="1.35827" stroke-linecap="round"/>
<path id="Vector 85" d="M46.5582 16.0554C47.5119 15.9495 48.5624 15.1333 49.5179 14.8679C51.1199 14.4229 52.5636 14.4111 54.2498 14.4111C56.2882 14.4111 58.5777 15.421 60.1693 16.6401C61.0059 17.2809 62.0647 17.6229 62.8915 18.2844C64.7862 19.8001 66.1431 22.2392 67.6052 24.1125" stroke="#2E2924" stroke-width="1.35827" stroke-linecap="round"/>
<path id="Vector 86" d="M40.4742 19.3442C40.4742 17.8264 41.5592 16.1583 42.3652 14.9046C42.9657 13.9704 43.3986 13.0424 44.4206 12.4747C45.349 11.9589 46.5932 11.1354 47.6178 10.9491C50.2833 10.4645 53.0007 10.3005 55.7297 10.3005C57.0386 10.3005 58.1246 10.6741 59.2923 11.2049C60.268 11.6484 61.3249 11.9033 62.1424 12.6391C63.2876 13.6698 64.2768 15.7135 65.7964 16.22" stroke="#2E2924" stroke-width="1.35827" stroke-linecap="round"/>
<path id="Vector 87" d="M70.8938 37.1025C73.1546 37.1025 74.372 39.1008 75.8175 40.5464C76.6642 41.3931 77.5373 42.6811 77.8364 43.8442C78.5248 46.5215 77.9643 49.3699 77.9643 52.0657" stroke="#2E2924" stroke-width="1.35827" stroke-linecap="round"/>
<path id="Vector 88" d="M69.2494 26.7437C69.2494 27.5558 69.5818 27.9352 70.1264 28.5707C71.0013 29.5914 71.7402 30.6894 72.538 31.7679C73.4283 32.9714 74.4752 34.6183 75.8266 35.294" stroke="#2E2924" stroke-width="1.35827" stroke-linecap="round"/>
<path id="Vector 89" d="M39.9809 19.6728C38.4377 19.6728 36.8084 19.5162 35.2855 19.7641C33.1753 20.1077 31.2299 21.0582 29.2199 21.7282C26.5049 22.6331 23.6466 24.2748 21.7292 26.4053C20.362 27.9243 19.1651 29.4865 18.0204 31.1463C17.3028 32.1868 16.5917 33.3248 16.1385 34.508C15.5979 35.9196 15.4434 37.2895 15.152 38.7467" stroke="#2E2924" stroke-width="1.35827" stroke-linecap="round"/>
<path id="Vector 90" d="M39.1588 18.5221C38.5289 18.5221 37.9313 18.4584 37.3135 18.3211C36.6488 18.1734 35.8402 18.1708 35.2124 17.9466C34.7339 17.7757 34.1457 17.8644 33.6412 17.8644C32.7419 17.8644 31.8518 17.7 30.9373 17.7C29.5352 17.7 28.2188 18.0295 26.8356 18.2024C25.8848 18.3212 25.1333 19.122 24.3601 19.5087" stroke="#2E2924" stroke-width="1.35827" stroke-linecap="round"/>
<path id="Vector 91" d="M39.3233 17.7C38.0592 16.8249 37.1028 15.5299 35.7058 14.8682C33.603 13.8721 30.8755 14.6321 28.7997 15.0691" stroke="#2E2924" stroke-width="1.35827" stroke-linecap="round"/>
<path id="Vector 92" d="M38.7282 27.1653C38.7282 24.8832 37.9662 23.231 38.7282 21.0212C39.4958 18.7953 40.9965 18.2248 42.9248 17.3114C44.4683 16.5803 46.2367 16.5225 47.9104 16.5225C48.6792 16.5225 49.3388 16.5988 50.0255 16.9421C50.5138 17.1863 51.2891 17.58 51.8384 17.58" stroke="#2E2924" stroke-width="1.35827" stroke-linecap="round"/>
<path id="Vector 93" d="M38.5435 23.1695C38.5435 21.3896 39.9741 18.5621 42.0183 18.335C42.2497 18.3093 42.8264 17.8332 42.5387 18.2511C42.09 18.9027 41.2962 19.908 40.8684 20.4501C40.4676 20.9581 39.5177 22.4442 38.8457 22.8674C38.69 22.9654 38.876 22.4978 38.9296 22.3218C39.4068 20.7538 40.792 20.1174 42.0183 19.2415" stroke="#2E2924" stroke-width="1.35827" stroke-linecap="round"/>
<path id="Vector 94" d="M36.7154 22.0127C33.068 22.0127 30.2796 25.9827 28.8103 28.8649C27.8743 30.7008 26.9573 32.4434 26.2185 34.3725C25.4943 36.2634 25.084 38.2436 24.3232 40.1231C23.9255 41.1058 23.7088 41.7604 22.7195 42.31C22.2119 42.592 21.4225 43.4921 21.2292 43.9947C20.9276 44.7788 19.8207 45.4599 19.3663 46.1815C18.746 47.1668 18.3458 48.3821 18.3458 49.5671" stroke="#2E2924" stroke-width="1.35827" stroke-linecap="round"/>
<path id="Vector 95" d="M33.9454 23.0334C33.4618 23.1409 32.4493 24.3028 32.0826 24.6695C31.0533 25.6988 30.6103 27.1097 30.0901 28.4277C28.9873 31.2215 28.9119 34.4442 27.3525 37.0617C25.6246 39.9621 23.341 44.4647 19.5122 44.4647" stroke="#25211D" stroke-width="0.452756" stroke-linecap="round"/>
<path id="Vector 96" d="M56.9803 28.2817C57.0358 28.7819 57.7372 29.3213 58.0656 29.6263C58.977 30.4726 59.9535 31.3386 60.706 32.3315C61.8361 33.8225 62.5943 35.5391 63.6056 37.1021C64.6733 38.7521 65.8306 40.6562 66.3109 42.5773C66.4992 43.3305 67.1015 43.936 67.3314 44.6832C67.5321 45.3354 68.0425 46.1456 68.4977 46.6514C68.9989 47.2082 69.5157 47.886 69.8827 48.5385C70.1767 49.0611 70.7303 49.5127 70.9762 50.0045" stroke="#25211D" stroke-width="0.452756" stroke-linecap="round"/>
<path id="Vector 107" d="M36.2416 27.8286C35.4641 27.8286 34.8549 28.9322 34.395 29.4098C33.7936 30.0343 33.2809 30.7145 32.8138 31.4411C32.3354 32.1854 32.2632 33.1455 31.752 33.8532C30.9911 34.9068 30.0163 35.9263 29.4899 37.1252C28.7781 38.7467 27.9362 40.3937 26.5295 41.5398C25.6857 42.2274 25.1978 43.1312 24.4463 43.8827C23.8141 44.515 23.1852 45.1942 22.6343 45.9025C21.7608 47.0255 21.3676 48.1545 20.9724 49.538" stroke="#25211D" stroke-width="0.452756" stroke-linecap="round"/>
<path id="Vector 108" d="M44.6554 26.5818C46.1739 26.5818 47.8677 27.2088 48.9546 28.2957C49.4667 28.8078 49.5255 29.5821 50.0048 30.0615C51.5441 31.6008 53.0899 32.9014 55.0196 33.9568C56.1676 34.5846 57.4842 34.5072 58.6263 35.0994C59.2631 35.4295 59.9571 35.5787 60.5537 35.9823C61.3791 36.5406 62.279 36.9519 63.0928 37.5404C63.6798 37.9648 64.6497 38.4001 65.0952 38.9888C65.3879 39.3755 65.5212 40.0471 65.7415 40.5007C65.9211 40.8704 66.0295 41.2607 66.157 41.6433" stroke="#25211D" stroke-width="0.452756" stroke-linecap="round"/>
</g>
</g>
<defs>
<filter id="filter0_d_1158_810" x="0.688976" y="0" width="92.815" height="118.622" filterUnits="userSpaceOnUse" color-interpolation-filters="sRGB">
<feFlood flood-opacity="0" result="BackgroundImageFix"/>
<feColorMatrix in="SourceAlpha" type="matrix" values="0 0 0 0 0 0 0 0 0 0 0 0 0 0 0 0 0 0 127 0" result="hardAlpha"/>
<feOffset dy="1.81102"/>
<feGaussianBlur stdDeviation="0.905512"/>
<feComposite in2="hardAlpha" operator="out"/>
<feColorMatrix type="matrix" values="0 0 0 0 0 0 0 0 0 0 0 0 0 0 0 0 0 0 0.25 0"/>
<feBlend mode="normal" in2="BackgroundImageFix" result="effect1_dropShadow_1158_810"/>
<feBlend mode="normal" in="SourceGraphic" in2="effect1_dropShadow_1158_810" result="shape"/>
</filter>
<clipPath id="clip0_1158_810">
<rect width="89.1929" height="115" fill="white" transform="translate(2.5)"/>
</clipPath>
</defs>
</svg>
