<svg width="226" height="226" viewBox="0 0 226 226" fill="none" xmlns="http://www.w3.org/2000/svg">
<path d="M221.959 65.9522H225.525L223.373 94.5784H154.876C154.876 94.5784 155.122 78.3201 155.122 70.6296V25.5196C155.122 18.5096 154.909 13.8977 154.491 11.6799C154.068 9.46623 153.105 7.91665 151.592 7.03118C150.08 6.1498 146.903 5.70706 142.049 5.70706V2.5874H214.014L216.392 25.5155H212.899C211.313 19.0958 209.37 14.5372 207.07 11.8439C204.766 9.15468 202.032 7.45752 198.863 6.75652C195.694 6.05551 190.594 5.70296 183.564 5.70296H169.601V44.3031H180.296C185.199 44.3031 188.626 43.9178 190.582 43.1512C192.537 42.3805 193.825 41.2163 194.444 39.6585C195.063 38.0966 195.37 35.0589 195.37 30.5332H198.863V62.0126H195.37C195.37 56.9006 194.899 53.4776 193.96 51.7354C193.017 49.9931 191.644 48.8658 189.84 48.3452C188.032 47.8245 184.974 47.5663 180.669 47.5663H169.605V69.3424C169.605 80.2428 170.372 86.6543 171.909 88.5769C173.442 90.4995 177.579 91.4588 184.31 91.4588H191.812C197.108 91.4588 201.466 90.8357 204.885 89.5935C208.3 88.3514 211.555 85.7934 214.65 81.9276C217.745 78.0619 220.184 72.7367 221.963 65.9522H221.959Z" fill="#012D48"/>
<path d="M0 5.71121V2.59155H46.0447V5.71121H43.8925C38.9404 5.71121 35.6978 6.08426 34.1646 6.83036C32.6314 7.57645 31.6025 8.96615 31.0818 11.0036C30.5612 13.0369 30.3029 17.8783 30.3029 25.5196V70.6338C30.3029 77.8692 30.4874 82.6082 30.8605 84.8465C31.2335 87.0847 32.2215 88.7491 33.8325 89.8314C35.4395 90.9177 38.5223 91.4588 43.0808 91.4588H46.0529V94.5785H0V91.4588H2.97208C7.28058 91.4588 10.2609 90.9628 11.9211 89.9666C13.5814 88.9705 14.6308 87.4209 15.0777 85.3179C15.5245 83.2149 15.7459 78.3202 15.7459 70.6297V25.5196C15.7459 18.194 15.5245 13.4673 15.0777 11.3397C14.6308 9.21622 13.6429 7.74453 12.1056 6.92874C10.5724 6.11296 7.25188 5.70711 2.1522 5.70711H0V5.71121Z" fill="#012D48"/>
<path d="M164.01 137.126C163.776 134.929 163.436 132.74 163.005 130.571C159.57 132.346 156.553 134.88 153.913 138.204C147.751 145.965 144.627 157.562 144.627 172.672C144.627 180.305 145.62 186.959 147.575 192.6C150.982 188.103 153.917 183.347 156.323 178.514C162.657 165.634 165.494 151.241 164.014 137.13L164.01 137.126Z" fill="#012D48"/>
<path d="M84.8499 74.6061C94.2663 80.2797 104.302 84.785 113.046 90.9177C124.073 98.7886 132.682 109.644 137.499 121.696C139.184 120.573 140.946 119.544 142.779 118.605C147.395 116.252 152.253 114.461 157.324 113.227C150.498 98.4525 139.089 85.4327 124.614 76.3648C117.301 71.7529 108.704 68.0307 101.075 64.5216C89.5929 59.2005 77.926 53.6909 71.3997 43.4628C67.8824 37.9245 65.9475 31.4105 67.4397 24.999C69.8173 13.8363 81.5581 4.96925 94.1351 4.54701C96.7177 4.41583 99.2922 4.6331 101.801 5.14552C106.011 6.36305 109.889 8.45786 113.435 11.4422C119.416 16.4845 123.585 23.3921 125.943 32.1689H130.034V2.02176H125.943C125.569 5.64565 123.958 9.01538 121.105 12.1309C104.671 -4.37743 74.7366 -4.53321 60.7248 14.7259C57.146 19.6452 54.9897 25.4213 54.7642 31.3367C54.4281 36.7152 55.7112 42.1264 57.7855 47.1359C62.6679 59.016 73.4576 67.9446 84.8499 74.6061Z" fill="#012D48"/>
<path d="M115.28 194.272C112.742 196.113 110 197.699 107.081 199.028C91.257 206.193 71.9241 205.431 55.7478 199.38C44.6958 195.268 35.0006 188.336 27.6422 179.719C18.439 168.72 12.2775 154.647 13.741 140.66C15.43 124.504 29.8231 108.619 48.6763 109.111C65.4266 109.545 76.823 123 84.0133 135.372L88.4694 134.154L76.8394 98.6777L72.3833 99.8953C72.9449 104.765 72.662 108.742 71.5388 111.829C71.7889 111.136 62.7701 107.66 61.7986 107.332C58.5395 106.221 55.137 105.47 51.6689 105.184C38.3458 104.073 24.2356 109.205 14.9791 117.908C8.90782 123.619 4.56243 130.989 2.6398 138.905C0.483505 147.428 0.87295 156.295 2.99235 164.748C8.3175 185.995 24.2848 204.722 45.5157 214.736C67.259 225.03 94.1635 226.94 116.698 217.364C120.039 215.95 123.241 214.261 126.291 212.347C121.359 207.058 117.678 201.024 115.271 194.272H115.28Z" fill="#012D48"/>
<path d="M218.737 184.442H222.357V220.98H218.737C217.728 216.827 215.9 213.158 213.264 209.981C203.212 220.341 190.385 225.522 174.779 225.522C158.274 225.522 144.783 220.755 134.313 211.215C123.843 201.676 118.608 189.062 118.608 173.369C118.608 163.059 121.023 153.356 125.852 144.251C130.681 135.15 137.417 128.39 146.062 123.98C154.708 119.569 164.194 117.363 174.525 117.363C183.06 117.363 190.791 118.966 197.727 122.172C204.659 125.377 209.841 128.928 213.264 132.826C215.679 128.468 217.138 123.955 217.642 119.286H221.348L222.361 158.825H218.741C216.216 144.772 211.063 135.003 203.286 129.514C195.509 124.029 186.737 121.282 176.968 121.282C165.01 121.282 155.507 125.718 148.46 134.589C141.413 143.46 137.892 156.156 137.892 172.668C137.892 188.312 141.737 200.298 149.428 208.633C157.118 216.967 166.691 221.132 178.144 221.132C184.265 221.132 190.525 219.775 196.924 217.053C203.323 214.335 208.39 209.731 212.124 203.246C215.859 196.761 218.06 190.489 218.737 184.438V184.442Z" fill="#012D48"/>
</svg>
