<svg width="226" height="226" viewBox="0 0 226 226" fill="none" xmlns="http://www.w3.org/2000/svg">
<path d="M221.959 65.9522H225.525L223.373 94.5784H154.876C154.876 94.5784 155.122 78.3201 155.122 70.6296V25.5196C155.122 18.5096 154.908 13.8977 154.49 11.6799C154.068 9.46623 153.105 7.91665 151.592 7.03118C150.079 6.1498 146.902 5.70706 142.049 5.70706V2.5874H214.014L216.392 25.5155H212.899C211.312 19.0958 209.369 14.5372 207.07 11.8439C204.766 9.15468 202.031 7.45752 198.862 6.75652C195.694 6.05551 190.594 5.70296 183.563 5.70296H169.601V44.3031H180.296C185.199 44.3031 188.626 43.9178 190.582 43.1512C192.537 42.3805 193.824 41.2163 194.443 39.6585C195.062 38.0966 195.37 35.0589 195.37 30.5332H198.862V62.0126H195.37C195.37 56.9007 194.898 53.4776 193.96 51.7354C193.017 49.9931 191.643 48.8658 189.84 48.3452C188.032 47.8245 184.974 47.5663 180.669 47.5663H169.605V69.3424C169.605 80.2428 170.371 86.6543 171.909 88.5769C173.442 90.4995 177.578 91.4588 184.31 91.4588H191.811C197.108 91.4588 201.466 90.8357 204.885 89.5935C208.299 88.3514 211.554 85.7934 214.649 81.9276C217.744 78.0619 220.184 72.7367 221.963 65.9522H221.959Z" fill="white"/>
<path d="M-0.000488281 5.71121V2.59155H46.0442V5.71121H43.892C38.9399 5.71121 35.6973 6.08426 34.1641 6.83036C32.6309 7.57645 31.602 8.96616 31.0813 11.0036C30.5607 13.0369 30.3024 17.8783 30.3024 25.5196V70.6338C30.3024 77.8692 30.4869 82.6082 30.86 84.8465C31.233 87.0847 32.221 88.7491 33.8321 89.8314C35.439 90.9177 38.5218 91.4588 43.0803 91.4588H46.0524V94.5785H-0.000488281V91.4588H2.97159C7.28009 91.4588 10.2604 90.9628 11.9206 89.9666C13.5809 88.9705 14.6304 87.4209 15.0772 85.3179C15.524 83.2149 15.7454 78.3202 15.7454 70.6297V25.5196C15.7454 18.194 15.524 13.4673 15.0772 11.3397C14.6304 9.21622 13.6424 7.74453 12.1051 6.92874C10.5719 6.11296 7.25139 5.70711 2.15171 5.70711H-0.000488281V5.71121Z" fill="white"/>
<path d="M164.009 137.126C163.776 134.929 163.435 132.74 163.005 130.571C159.57 132.346 156.552 134.88 153.912 138.204C147.751 145.965 144.627 157.562 144.627 172.672C144.627 180.305 145.619 186.959 147.575 192.6C150.981 188.103 153.916 183.347 156.323 178.514C162.656 165.634 165.493 151.241 164.013 137.13L164.009 137.126Z" fill="white"/>
<path d="M84.8494 74.6061C94.2658 80.2797 104.301 84.785 113.045 90.9177C124.073 98.7886 132.681 109.644 137.498 121.696C139.183 120.573 140.946 119.544 142.778 118.605C147.394 116.252 152.252 114.461 157.323 113.227C150.498 98.4525 139.089 85.4327 124.614 76.3648C117.3 71.7529 108.704 68.0307 101.075 64.5216C89.5924 59.2005 77.9255 53.6909 71.3992 43.4628C67.8819 37.9245 65.947 31.4105 67.4392 24.999C69.8168 13.8363 81.5576 4.96925 94.1346 4.54701C96.7172 4.41583 99.2917 4.6331 101.801 5.14552C106.011 6.36305 109.889 8.45786 113.435 11.4422C119.416 16.4845 123.585 23.3921 125.942 32.1689H130.033V2.02176H125.942C125.569 5.64565 123.958 9.01538 121.105 12.1309C104.67 -4.37743 74.7361 -4.53321 60.7243 14.7259C57.1455 19.6452 54.9892 25.4213 54.7638 31.3367C54.4276 36.7152 55.7107 42.1264 57.785 47.1359C62.6674 59.016 73.4571 67.9446 84.8494 74.6061Z" fill="white"/>
<path d="M115.279 194.272C112.742 196.113 109.999 197.699 107.081 199.028C91.2568 206.193 71.9239 205.431 55.7476 199.38C44.6955 195.268 35.0004 188.336 27.6419 179.719C18.4387 168.72 12.2773 154.647 13.7408 140.66C15.4298 124.504 29.8228 108.619 48.6761 109.111C65.4263 109.545 76.8227 123 84.0131 135.372L88.4692 134.154L76.8391 98.6777L72.383 99.8953C72.9447 104.765 72.6618 108.742 71.5386 111.829C71.7886 111.136 62.7699 107.66 61.7983 107.332C58.5393 106.221 55.1368 105.47 51.6687 105.184C38.3455 104.073 24.2353 109.205 14.9788 117.908C8.90757 123.619 4.56219 130.989 2.63956 138.905C0.48326 147.428 0.872706 156.295 2.99211 164.748C8.31726 185.995 24.2845 204.722 45.5154 214.736C67.2588 225.03 94.1633 226.94 116.698 217.364C120.039 215.95 123.24 214.261 126.29 212.347C121.359 207.058 117.678 201.024 115.271 194.272H115.279Z" fill="white"/>
<path d="M218.736 184.442H222.356V220.98H218.736C217.728 216.827 215.9 213.158 213.264 209.981C203.212 220.341 190.385 225.522 174.778 225.522C158.274 225.522 144.783 220.755 134.313 211.215C123.843 201.676 118.608 189.062 118.608 173.369C118.608 163.059 121.022 153.356 125.852 144.251C130.681 135.15 137.416 128.39 146.062 123.98C154.707 119.569 164.194 117.363 174.524 117.363C183.059 117.363 190.791 118.966 197.727 122.172C204.659 125.377 209.841 128.928 213.264 132.826C215.678 128.468 217.138 123.955 217.642 119.286H221.348L222.36 158.825H218.74C216.215 144.772 211.062 135.003 203.286 129.514C195.509 124.029 186.736 121.282 176.967 121.282C165.009 121.282 155.507 125.718 148.46 134.589C141.413 143.46 137.892 156.156 137.892 172.668C137.892 188.312 141.737 200.298 149.427 208.633C157.118 216.967 166.69 221.132 178.144 221.132C184.264 221.132 190.524 219.775 196.923 217.053C203.322 214.335 208.389 209.731 212.124 203.246C215.859 196.761 218.06 190.489 218.736 184.438V184.442Z" fill="white"/>
</svg>
