<svg width="1115" height="905" viewBox="0 0 1115 905" fill="none" xmlns="http://www.w3.org/2000/svg">
<g filter="url(#filter0_d_269_1594)">
<path d="M120.046 511.132C119.092 504.342 123.822 498.065 130.612 497.111L155.198 493.655C161.987 492.701 168.265 497.431 169.219 504.221C170.173 511.01 165.443 517.287 158.653 518.242L134.067 521.697C127.278 522.651 121 517.921 120.046 511.132Z" fill="#1D1D1E"/>
<path d="M128.191 569.085C127.237 562.296 131.967 556.018 138.756 555.064L163.343 551.609C170.132 550.655 176.41 555.385 177.364 562.174C178.318 568.964 173.588 575.241 166.798 576.195L142.212 579.651C135.423 580.605 129.145 575.874 128.191 569.085Z" fill="#1D1D1E"/>
<path d="M135.349 620.014C134.394 613.225 139.125 606.947 145.914 605.993L170.5 602.538C177.29 601.584 183.567 606.314 184.521 613.103C185.475 619.893 180.745 626.17 173.956 627.124L149.369 630.579C142.58 631.534 136.303 626.803 135.349 620.014Z" fill="#1D1D1E"/>
<path d="M143.987 681.48C143.033 674.691 147.763 668.413 154.553 667.459L179.139 664.004C185.928 663.049 192.206 667.78 193.16 674.569C194.114 681.358 189.384 687.636 182.594 688.59L158.008 692.045C151.219 693 144.941 688.269 143.987 681.48Z" fill="#1D1D1E"/>
<path d="M151.885 737.677C150.931 730.888 155.661 724.611 162.451 723.656L187.037 720.201C193.826 719.247 200.104 723.977 201.058 730.767C202.012 737.556 197.282 743.833 190.492 744.787L165.906 748.243C159.117 749.197 152.839 744.467 151.885 737.677Z" fill="#1D1D1E"/>
<path d="M159.783 793.875C158.829 787.085 163.559 780.808 170.349 779.854L194.935 776.398C201.724 775.444 208.002 780.175 208.956 786.964C209.91 793.753 205.18 800.031 198.39 800.985L173.804 804.44C167.015 805.394 160.737 800.664 159.783 793.875Z" fill="#1D1D1E"/>
<path d="M619.054 328.177C618.1 321.387 622.83 315.11 629.62 314.156L654.206 310.7C660.996 309.746 667.273 314.476 668.227 321.266C669.181 328.055 664.451 334.332 657.662 335.287L633.075 338.742C626.286 339.696 620.008 334.966 619.054 328.177Z" fill="#1D1D1E"/>
<path d="M634.604 438.815C633.649 432.026 638.38 425.748 645.169 424.794L669.755 421.339C676.545 420.385 682.822 425.115 683.776 431.904C684.73 438.694 680 444.971 673.211 445.925L648.624 449.381C641.835 450.335 635.558 445.605 634.604 438.815Z" fill="#1D1D1E"/>
<path d="M626.952 384.374C625.998 377.585 630.728 371.307 637.518 370.353L662.104 366.898C668.894 365.944 675.171 370.674 676.125 377.463C677.079 384.253 672.349 390.53 665.56 391.484L640.973 394.939C634.184 395.894 627.906 391.163 626.952 384.374Z" fill="#1D1D1E"/>
<path d="M642.748 496.769C641.794 489.979 646.524 483.702 653.314 482.748L677.9 479.292C684.69 478.338 690.967 483.069 691.921 489.858C692.875 496.647 688.145 502.925 681.356 503.879L656.769 507.334C649.98 508.288 643.703 503.558 642.748 496.769Z" fill="#1D1D1E"/>
<path d="M649.906 547.698C648.952 540.908 653.682 534.631 660.471 533.677L685.058 530.221C691.847 529.267 698.124 533.998 699.079 540.787C700.033 547.576 695.303 553.854 688.513 554.808L663.927 558.263C657.137 559.217 650.86 554.487 649.906 547.698Z" fill="#1D1D1E"/>
<path d="M658.544 609.164C657.59 602.374 662.321 596.097 669.11 595.143L693.696 591.687C700.486 590.733 706.763 595.463 707.717 602.253C708.671 609.042 703.941 615.319 697.152 616.274L672.565 619.729C665.776 620.683 659.499 615.953 658.544 609.164Z" fill="#1D1D1E"/>
<path d="M666.442 665.361C665.488 658.572 670.219 652.294 677.008 651.34L701.594 647.885C708.384 646.931 714.661 651.661 715.615 658.45C716.569 665.24 711.839 671.517 705.05 672.471L680.463 675.926C673.674 676.881 667.397 672.15 666.442 665.361Z" fill="#1D1D1E"/>
<path d="M674.34 721.558C673.386 714.769 678.117 708.492 684.906 707.537L709.492 704.082C716.282 703.128 722.559 707.858 723.513 714.648C724.467 721.437 719.737 727.714 712.948 728.668L688.361 732.124C681.572 733.078 675.295 728.348 674.34 721.558Z" fill="#1D1D1E"/>
<path d="M513.542 405.685C514.36 411.505 510.305 416.885 504.486 417.703C498.666 418.521 493.286 414.467 492.468 408.647C491.65 402.828 495.704 397.447 501.524 396.629C507.343 395.811 512.724 399.866 513.542 405.685Z" fill="#1D1D1E"/>
<path d="M622.795 558.671C623.612 564.491 619.558 569.871 613.738 570.689C607.919 571.507 602.538 567.453 601.721 561.633C600.903 555.814 604.957 550.433 610.777 549.615C616.596 548.797 621.977 552.852 622.795 558.671Z" fill="#1D1D1E"/>
<path fill-rule="evenodd" clip-rule="evenodd" d="M976.696 107.782L527.116 170.966L614.488 792.65L626.782 790.922L1064.07 729.466L977.683 114.807L976.696 107.782ZM654.206 310.7L629.62 314.156C622.83 315.11 618.1 321.387 619.054 328.177C620.008 334.966 626.286 339.696 633.075 338.742L657.662 335.287C664.451 334.332 669.181 328.055 668.227 321.266C667.273 314.476 660.996 309.746 654.206 310.7ZM669.755 421.339L645.169 424.794C638.38 425.748 633.649 432.026 634.604 438.815C635.558 445.605 641.835 450.335 648.624 449.381L673.211 445.925C680 444.971 684.73 438.694 683.776 431.904C682.822 425.115 676.545 420.385 669.755 421.339ZM662.104 366.898L637.518 370.353C630.728 371.307 625.998 377.585 626.952 384.374C627.906 391.163 634.184 395.894 640.973 394.939L665.56 391.484C672.349 390.53 677.079 384.253 676.125 377.463C675.171 370.674 668.894 365.944 662.104 366.898ZM677.9 479.292L653.314 482.748C646.524 483.702 641.794 489.979 642.748 496.769C643.703 503.558 649.98 508.288 656.769 507.334L681.356 503.879C688.145 502.925 692.875 496.647 691.921 489.858C690.967 483.069 684.69 478.338 677.9 479.292ZM685.058 530.221L660.471 533.677C653.682 534.631 648.952 540.908 649.906 547.698C650.86 554.487 657.137 559.217 663.927 558.263L688.513 554.808C695.303 553.854 700.033 547.576 699.079 540.787C698.124 533.998 691.847 529.267 685.058 530.221ZM693.696 591.687L669.11 595.143C662.321 596.097 657.59 602.374 658.544 609.164C659.499 615.953 665.776 620.683 672.565 619.729L697.152 616.274C703.941 615.319 708.671 609.042 707.717 602.253C706.763 595.463 700.486 590.733 693.696 591.687ZM701.594 647.885L677.008 651.34C670.219 652.294 665.488 658.572 666.442 665.361C667.397 672.15 673.674 676.881 680.463 675.926L705.05 672.471C711.839 671.517 716.569 665.24 715.615 658.45C714.661 651.661 708.384 646.931 701.594 647.885ZM709.492 704.082L684.906 707.537C678.117 708.492 673.386 714.769 674.34 721.558C675.295 728.348 681.572 733.078 688.361 732.124L712.948 728.668C719.737 727.714 724.467 721.437 723.513 714.648C722.559 707.858 716.282 703.128 709.492 704.082ZM590.538 405.609C596.357 404.791 600.412 399.411 599.594 393.591C598.776 387.772 593.396 383.717 587.576 384.535C581.757 385.353 577.702 390.734 578.52 396.553C579.338 402.373 584.718 406.427 590.538 405.609ZM613.738 570.689C619.558 569.871 623.612 564.491 622.795 558.671C621.977 552.852 616.596 548.797 610.777 549.615C604.957 550.433 600.903 555.814 601.721 561.633C602.538 567.453 607.919 571.507 613.738 570.689Z" fill="#F8F7EC"/>
<path d="M599.594 393.591C600.412 399.411 596.357 404.791 590.538 405.609C584.718 406.427 579.338 402.373 578.52 396.553C577.702 390.734 581.757 385.353 587.576 384.535C593.396 383.717 598.776 387.772 599.594 393.591Z" fill="#1D1D1E"/>
<path fill-rule="evenodd" clip-rule="evenodd" d="M9.37894 207.912L1013.91 66.7351L1110.66 755.153L106.13 896.331L9.37894 207.912ZM49.4386 238.099L499.018 174.915L586.39 796.599L579.365 797.586L580.352 804.611L137.798 866.808L136.811 859.783L49.4386 238.099ZM527.116 170.966L976.696 107.782L977.683 114.807L984.707 113.819L1072.08 735.503L627.769 797.947L626.782 790.922L614.488 792.65L527.116 170.966Z" fill="#7F4C4A"/>
<path d="M536.742 570.765C537.56 576.585 533.506 581.965 527.686 582.783C521.867 583.601 516.486 579.546 515.668 573.727C514.85 567.908 518.905 562.527 524.724 561.709C530.544 560.891 535.924 564.946 536.742 570.765Z" fill="#1D1D1E"/>
<path d="M115.062 386.472L139.649 383.017C146.438 382.062 152.715 386.793 153.67 393.582C154.624 400.371 149.893 406.649 143.104 407.603L118.518 411.058C111.728 412.013 105.451 407.282 104.497 400.493C103.543 393.704 108.273 387.426 115.062 386.472Z" fill="#C7C7C7"/>
<path d="M122.96 442.669L147.547 439.214C154.336 438.26 160.613 442.99 161.568 449.78C162.522 456.569 157.791 462.846 151.002 463.8L126.416 467.256C119.626 468.21 113.349 463.48 112.395 456.69C111.441 449.901 116.171 443.624 122.96 442.669Z" fill="#C7C7C7"/>
<path fill-rule="evenodd" clip-rule="evenodd" d="M499.018 174.915L49.4386 238.099L136.811 859.783L579.365 797.586L586.39 796.599L499.018 174.915ZM139.649 383.017L115.062 386.472C108.273 387.426 103.543 393.704 104.497 400.493C105.451 407.282 111.728 412.013 118.518 411.058L143.104 407.603C149.893 406.649 154.624 400.371 153.67 393.582C152.715 386.793 146.438 382.062 139.649 383.017ZM155.198 493.655L130.612 497.111C123.822 498.065 119.092 504.342 120.046 511.132C121 517.921 127.278 522.651 134.067 521.697L158.653 518.242C165.443 517.287 170.173 511.01 169.219 504.221C168.265 497.431 161.987 492.701 155.198 493.655ZM147.547 439.214L122.96 442.669C116.171 443.624 111.441 449.901 112.395 456.69C113.349 463.48 119.626 468.21 126.416 467.256L151.002 463.8C157.791 462.846 162.522 456.569 161.568 449.78C160.613 442.99 154.336 438.26 147.547 439.214ZM163.343 551.609L138.756 555.064C131.967 556.018 127.237 562.296 128.191 569.085C129.145 575.874 135.423 580.605 142.212 579.651L166.798 576.195C173.588 575.241 178.318 568.964 177.364 562.174C176.41 555.385 170.132 550.655 163.343 551.609ZM170.5 602.538L145.914 605.993C139.125 606.947 134.394 613.225 135.349 620.014C136.303 626.803 142.58 631.534 149.369 630.579L173.956 627.124C180.745 626.17 185.475 619.893 184.521 613.103C183.567 606.314 177.29 601.584 170.5 602.538ZM179.139 664.004L154.553 667.459C147.763 668.413 143.033 674.691 143.987 681.48C144.941 688.269 151.219 693 158.008 692.045L182.594 688.59C189.384 687.636 194.114 681.358 193.16 674.569C192.206 667.78 185.928 663.049 179.139 664.004ZM187.037 720.201L162.451 723.656C155.661 724.611 150.931 730.888 151.885 737.677C152.839 744.467 159.117 749.197 165.906 748.243L190.492 744.787C197.282 743.833 202.012 737.556 201.058 730.767C200.104 723.977 193.826 719.247 187.037 720.201ZM194.935 776.398L170.349 779.854C163.559 780.808 158.829 787.085 159.783 793.875C160.737 800.664 167.015 805.394 173.804 804.44L198.39 800.985C205.18 800.031 209.91 793.753 208.956 786.964C208.002 780.175 201.724 775.444 194.935 776.398ZM504.486 417.703C510.305 416.885 514.36 411.505 513.542 405.685C512.724 399.866 507.343 395.811 501.524 396.629C495.704 397.447 491.65 402.828 492.468 408.647C493.286 414.467 498.666 418.521 504.486 417.703ZM527.686 582.783C533.506 581.965 537.56 576.585 536.742 570.765C535.924 564.946 530.544 560.891 524.724 561.709C518.905 562.527 514.85 567.908 515.668 573.727C516.486 579.546 521.867 583.601 527.686 582.783Z" fill="#F8F7EC"/>
<path d="M579.365 797.586L136.811 859.783L137.798 866.808L580.352 804.611L579.365 797.586Z" fill="#CD746F"/>
<path fill-rule="evenodd" clip-rule="evenodd" d="M629.62 314.156L654.206 310.7C660.996 309.746 667.273 314.476 668.227 321.266C669.181 328.055 664.451 334.332 657.662 335.287L633.075 338.742C626.286 339.696 620.008 334.966 619.054 328.177C618.1 321.387 622.83 315.11 629.62 314.156ZM645.169 424.794L669.755 421.339C676.545 420.385 682.822 425.115 683.776 431.904C684.73 438.694 680 444.971 673.211 445.925L648.624 449.381C641.835 450.335 635.558 445.605 634.604 438.815C633.649 432.026 638.38 425.748 645.169 424.794ZM637.518 370.353L662.104 366.898C668.894 365.944 675.171 370.674 676.125 377.463C677.079 384.253 672.349 390.53 665.56 391.484L640.973 394.939C634.184 395.894 627.906 391.163 626.952 384.374C625.998 377.585 630.728 371.307 637.518 370.353ZM653.314 482.748L677.9 479.292C684.69 478.338 690.967 483.069 691.921 489.858C692.875 496.647 688.145 502.925 681.356 503.879L656.769 507.334C649.98 508.288 643.703 503.558 642.748 496.769C641.794 489.979 646.524 483.702 653.314 482.748ZM660.471 533.677L685.058 530.221C691.847 529.267 698.124 533.998 699.079 540.787C700.033 547.576 695.303 553.854 688.513 554.808L663.927 558.263C657.137 559.217 650.86 554.487 649.906 547.698C648.952 540.908 653.682 534.631 660.471 533.677ZM669.11 595.143L693.696 591.687C700.486 590.733 706.763 595.463 707.717 602.253C708.671 609.042 703.941 615.319 697.152 616.274L672.565 619.729C665.776 620.683 659.499 615.953 658.544 609.164C657.59 602.374 662.321 596.097 669.11 595.143ZM677.008 651.34L701.594 647.885C708.384 646.931 714.661 651.661 715.615 658.45C716.569 665.24 711.839 671.517 705.05 672.471L680.463 675.926C673.674 676.881 667.397 672.15 666.442 665.361C665.488 658.572 670.219 652.294 677.008 651.34ZM684.906 707.537L709.492 704.082C716.282 703.128 722.559 707.858 723.513 714.648C724.467 721.437 719.737 727.714 712.948 728.668L688.361 732.124C681.572 733.078 675.295 728.348 674.34 721.558C673.386 714.769 678.117 708.492 684.906 707.537ZM155.198 493.655L130.612 497.111C123.822 498.065 119.092 504.342 120.046 511.132C121 517.921 127.278 522.651 134.067 521.697L158.653 518.242C165.443 517.287 170.173 511.01 169.219 504.221C168.265 497.431 161.987 492.701 155.198 493.655ZM163.343 551.609L138.756 555.064C131.967 556.018 127.237 562.296 128.191 569.085C129.145 575.874 135.423 580.605 142.212 579.651L166.798 576.195C173.588 575.241 178.318 568.964 177.364 562.174C176.41 555.385 170.132 550.655 163.343 551.609ZM170.5 602.538L145.914 605.993C139.125 606.947 134.394 613.225 135.349 620.014C136.303 626.803 142.58 631.534 149.369 630.579L173.956 627.124C180.745 626.17 185.475 619.893 184.521 613.103C183.567 606.314 177.29 601.584 170.5 602.538ZM179.139 664.004L154.553 667.459C147.763 668.413 143.033 674.691 143.987 681.48C144.941 688.269 151.219 693 158.008 692.045L182.594 688.59C189.384 687.636 194.114 681.358 193.16 674.569C192.206 667.78 185.928 663.049 179.139 664.004ZM187.037 720.201L162.451 723.656C155.661 724.611 150.931 730.888 151.885 737.677C152.839 744.467 159.117 749.197 165.906 748.243L190.492 744.787C197.282 743.833 202.012 737.556 201.058 730.767C200.104 723.977 193.826 719.247 187.037 720.201ZM194.935 776.398L170.349 779.854C163.559 780.808 158.829 787.085 159.783 793.875C160.737 800.664 167.015 805.394 173.804 804.44L198.39 800.985C205.18 800.031 209.91 793.753 208.956 786.964C208.002 780.175 201.724 775.444 194.935 776.398Z" fill="#B7B5BA"/>
<path d="M1064.07 729.466L626.782 790.922L627.769 797.947L1072.08 735.503L984.707 113.819L977.683 114.807L1064.07 729.466Z" fill="#CD746F"/>
</g>
<g filter="url(#filter1_d_269_1594)">
<rect x="498.012" y="397.123" width="95.7651" height="17.7343" rx="8.86714" transform="rotate(-8 498.012 397.123)" fill="url(#paint0_linear_269_1594)"/>
</g>
<g filter="url(#filter2_d_269_1594)">
<rect x="521.212" y="562.203" width="95.7651" height="17.7343" rx="8.86714" transform="rotate(-8 521.212 562.203)" fill="url(#paint1_linear_269_1594)"/>
</g>
<g filter="url(#filter3_d_269_1594)">
<path d="M811.35 27.1499L825.665 129.008L873.082 122.344L858.766 20.486L837.635 48.5277L811.35 27.1499Z" fill="#1F6793"/>
<path d="M888.783 55.6663L897.668 118.888L945.084 112.224L936.199 49.0023L914.575 73.5318L888.783 55.6663Z" fill="#1F6793"/>
</g>
<path d="M196.444 443.086L473.919 404.09M243.832 780.271L521.307 741.274M204.589 501.04L482.064 462.043M211.994 553.725L489.468 514.728M219.645 608.166L497.119 569.17M728.791 599.29L1006.27 560.294M235.934 724.073L513.409 685.077M188.546 386.889L466.021 347.892M696.952 372.744L974.427 333.748M744.34 709.929L1021.82 670.932M705.097 430.698L982.572 391.702M712.502 483.383L989.976 444.387M720.153 537.824L997.627 498.828M736.442 653.731L1013.92 614.735M689.054 316.547L966.529 277.551M228.283 669.632L505.758 630.635" stroke="#B7B5BA" stroke-width="7.09371" stroke-linecap="round"/>
<g filter="url(#filter4_i_269_1594)">
<path d="M953.62 174.728L954.677 174.599L955.063 183.02L934.763 185.513C934.763 185.513 934.255 180.765 933.979 178.524L932.365 165.376C932.114 163.333 931.886 161.996 931.683 161.365C931.478 160.735 931.137 160.319 930.657 160.116C930.177 159.914 929.22 159.9 927.782 160.077L927.67 159.168L948.998 156.549L950.523 163.145L949.488 163.272C948.788 161.459 948.049 160.201 947.271 159.5C946.492 158.8 945.621 158.404 944.657 158.315C943.692 158.226 942.168 158.309 940.085 158.565L935.947 159.073L937.328 170.324L940.498 169.935C941.951 169.756 942.953 169.519 943.505 169.225C944.057 168.929 944.397 168.543 944.524 168.066C944.652 167.588 944.634 166.692 944.472 165.373L945.507 165.245L946.634 174.421L945.599 174.548C945.416 173.058 945.154 172.077 944.813 171.604C944.471 171.13 944.024 170.851 943.471 170.765C942.916 170.679 942.001 170.715 940.725 170.872L937.446 171.275L938.226 177.622C938.616 180.799 939.072 182.64 939.597 183.144C940.12 183.649 941.38 183.778 943.375 183.533L945.598 183.26C947.168 183.067 948.437 182.727 949.406 182.24C950.373 181.754 951.246 180.89 952.025 179.651C952.804 178.411 953.337 176.77 953.621 174.728L953.62 174.728Z" fill="#747278"/>
<path d="M885.684 165.252L885.572 164.343L899.218 162.668L899.33 163.577L898.692 163.655C897.224 163.835 896.277 164.062 895.849 164.335C895.421 164.609 895.166 165.051 895.085 165.664C895.003 166.276 895.1 167.696 895.373 169.923L896.988 183.072C897.247 185.181 897.471 186.556 897.662 187.195C897.852 187.833 898.205 188.283 898.721 188.539C899.236 188.798 900.169 188.843 901.52 188.677L902.401 188.569L902.513 189.478L888.864 191.154L888.753 190.245L889.633 190.137C890.91 189.98 891.776 189.727 892.232 189.376C892.689 189.025 892.944 188.536 893.001 187.906C893.058 187.277 892.949 185.842 892.674 183.601L891.059 170.453C890.797 168.318 890.562 166.948 890.354 166.344C890.145 165.742 889.8 165.349 889.315 165.167C888.832 164.985 887.833 164.987 886.322 165.173L885.684 165.251L885.684 165.252Z" fill="#747278"/>
<path d="M938.995 197.584C938.847 196.952 938.668 196.326 938.463 195.71C937.508 196.352 936.705 197.2 936.041 198.266C934.493 200.752 933.982 204.245 934.523 208.65C934.796 210.874 935.328 212.777 936.11 214.35C936.958 212.916 937.658 211.423 938.198 209.927C939.614 205.942 939.94 201.644 938.997 197.585L938.995 197.584Z" fill="#747278"/>
<path d="M913.295 182.24C916.289 183.551 919.424 184.499 922.235 185.968C925.785 187.861 928.724 190.712 930.583 194.049C931.042 193.661 931.528 193.297 932.037 192.956C933.321 192.102 934.697 191.403 936.155 190.859C933.604 186.802 929.757 183.422 925.143 181.306C922.81 180.228 920.129 179.455 917.743 178.71C914.149 177.577 910.494 176.396 908.194 173.652C906.954 172.166 906.147 170.338 906.36 168.415C906.665 165.075 909.827 162.063 913.54 161.482C914.3 161.35 915.071 161.32 915.833 161.378C917.124 161.58 918.348 162.049 919.506 162.79C921.459 164.042 922.942 165.903 923.954 168.376L925.167 168.227L924.088 159.44L922.876 159.589C922.895 160.659 922.538 161.7 921.804 162.711C916.342 158.498 907.466 159.542 904.002 165.665C903.118 167.229 902.685 168.991 902.83 170.723C902.923 172.303 903.497 173.834 904.291 175.218C906.163 178.503 909.68 180.713 913.295 182.24Z" fill="#747278"/>
<path d="M926.599 216.014C925.912 216.642 925.156 217.205 924.339 217.698C919.906 220.362 914.149 220.844 909.139 219.669C905.716 218.872 902.595 217.205 900.106 214.961C896.984 212.09 894.655 208.212 894.588 204.082C894.51 199.312 898.207 194.158 903.812 193.616C908.792 193.133 912.651 196.64 915.225 199.984L916.502 199.467L911.785 189.55L910.508 190.067C910.849 191.466 910.908 192.635 910.685 193.576C910.734 193.365 907.937 192.68 907.638 192.62C906.632 192.414 905.597 192.32 904.559 192.362C900.57 192.523 896.572 194.533 894.141 197.406C892.546 199.291 891.522 201.598 891.235 203.975C890.901 206.537 891.334 209.108 892.264 211.494C894.603 217.493 900.005 222.37 906.656 224.517C913.468 226.726 921.51 226.304 927.845 222.692C928.785 222.159 929.673 221.55 930.509 220.881C928.858 219.519 927.551 217.894 926.596 216.014L926.599 216.014Z" fill="#747278"/>
<path d="M956.906 209.386L957.979 209.254L959.287 219.904L958.214 220.036C957.767 218.862 957.093 217.859 956.198 217.029C953.59 220.414 949.974 222.391 945.349 222.959C940.458 223.56 936.289 222.661 932.845 220.261C929.4 217.862 927.398 214.376 926.836 209.802C926.467 206.797 926.835 203.881 927.941 201.052C929.046 198.223 930.8 196.008 933.205 194.408C935.609 192.808 938.341 191.82 941.403 191.444C943.932 191.133 946.281 191.319 948.451 192.001C950.621 192.683 952.283 193.529 953.437 194.541C953.997 193.183 954.268 191.814 954.25 190.435L955.349 190.3L957.064 201.788L955.991 201.919C954.74 197.915 952.863 195.255 950.362 193.939C947.861 192.623 945.162 192.142 942.267 192.497C938.723 192.932 936.066 194.571 934.295 197.413C932.524 200.255 931.935 204.083 932.526 208.896C933.086 213.456 934.654 216.809 937.232 218.959C939.809 221.108 942.795 221.974 946.189 221.557C948.003 221.334 949.81 220.711 951.609 219.685C953.408 218.66 954.745 217.133 955.62 215.107C956.494 213.081 956.922 211.173 956.906 209.385L956.906 209.386Z" fill="#747278"/>
</g>
<g filter="url(#filter5_i_269_1594)">
<path d="M451.292 245.325L452.349 245.195L452.736 253.617L432.436 256.109C432.436 256.109 431.927 251.361 431.652 249.12L430.038 235.972C429.787 233.929 429.559 232.592 429.355 231.961C429.151 231.331 428.81 230.915 428.33 230.712C427.85 230.51 426.893 230.496 425.454 230.673L425.343 229.764L446.67 227.145L448.195 233.741L447.16 233.868C446.46 232.055 445.721 230.797 444.944 230.096C444.165 229.396 443.293 229.001 442.329 228.912C441.365 228.823 439.841 228.905 437.757 229.161L433.619 229.669L435.001 240.92L438.171 240.531C439.624 240.352 440.625 240.115 441.178 239.821C441.729 239.525 442.069 239.139 442.197 238.662C442.325 238.184 442.307 237.288 442.145 235.969L443.18 235.842L444.307 245.017L443.272 245.144C443.089 243.654 442.826 242.673 442.486 242.2C442.144 241.726 441.697 241.448 441.144 241.362C440.589 241.276 439.674 241.312 438.398 241.468L435.119 241.871L435.898 248.218C436.288 251.395 436.745 253.236 437.269 253.74C437.793 254.245 439.053 254.374 441.048 254.129L443.271 253.856C444.84 253.663 446.11 253.323 447.078 252.836C448.046 252.35 448.919 251.486 449.698 250.247C450.477 249.007 451.009 247.367 451.294 245.324L451.292 245.325Z" fill="#747278"/>
<path d="M383.358 235.848L383.246 234.939L396.892 233.263L397.004 234.172L396.366 234.251C394.898 234.431 393.951 234.658 393.523 234.931C393.095 235.204 392.84 235.647 392.759 236.259C392.677 236.871 392.774 238.291 393.047 240.519L394.662 253.668C394.921 255.777 395.145 257.151 395.336 257.79C395.527 258.429 395.879 258.878 396.395 259.135C396.91 259.393 397.843 259.438 399.194 259.273L400.075 259.164L400.187 260.074L386.538 261.749L386.427 260.84L387.307 260.732C388.584 260.575 389.45 260.322 389.906 259.971C390.363 259.621 390.618 259.131 390.675 258.502C390.732 257.872 390.623 256.438 390.348 254.196L388.733 241.048C388.471 238.913 388.236 237.544 388.028 236.94C387.819 236.337 387.474 235.944 386.989 235.762C386.506 235.58 385.507 235.583 383.996 235.768L383.358 235.847L383.358 235.848Z" fill="#747278"/>
<path d="M436.67 268.18C436.522 267.548 436.343 266.922 436.138 266.306C435.183 266.948 434.38 267.796 433.716 268.861C432.168 271.347 431.657 274.841 432.198 279.245C432.471 281.47 433.003 283.373 433.785 284.946C434.633 283.512 435.333 282.019 435.873 280.523C437.289 276.538 437.615 272.24 436.671 268.181L436.67 268.18Z" fill="#747278"/>
<path d="M410.971 252.836C413.965 254.147 417.1 255.095 419.911 256.564C423.461 258.457 426.4 261.308 428.259 264.645C428.718 264.256 429.204 263.892 429.713 263.552C430.997 262.698 432.373 261.999 433.831 261.455C431.28 257.397 427.433 254.018 422.819 251.902C420.486 250.823 417.805 250.051 415.419 249.306C411.825 248.173 408.171 246.992 405.87 244.248C404.63 242.762 403.823 240.934 404.036 239.011C404.341 235.671 407.503 232.659 411.216 232.078C411.976 231.946 412.747 231.916 413.509 231.974C414.8 232.175 416.024 232.645 417.182 233.386C419.135 234.638 420.618 236.499 421.631 238.972L422.843 238.823L421.764 230.036L420.552 230.185C420.571 231.255 420.214 232.295 419.48 233.307C414.018 229.094 405.142 230.138 401.678 236.261C400.794 237.825 400.361 239.587 400.506 241.319C400.599 242.899 401.173 244.43 401.967 245.814C403.839 249.099 407.356 251.309 410.971 252.836Z" fill="#747278"/>
<path d="M424.274 286.609C423.588 287.238 422.832 287.801 422.014 288.294C417.581 290.958 411.824 291.439 406.814 290.265C403.391 289.468 400.27 287.801 397.781 285.557C394.66 282.686 392.33 278.808 392.263 274.678C392.185 269.908 395.883 264.754 401.487 264.212C406.467 263.729 410.326 267.235 412.9 270.58L414.177 270.063L409.461 260.146L408.184 260.663C408.524 262.062 408.583 263.231 408.36 264.172C408.41 263.961 405.612 263.276 405.313 263.216C404.307 263.01 403.272 262.915 402.234 262.958C398.246 263.119 394.248 265.128 391.816 268.002C390.221 269.887 389.197 272.194 388.91 274.571C388.576 277.133 389.009 279.704 389.94 282.09C392.278 288.089 397.68 292.966 404.331 295.113C411.143 297.322 419.185 296.9 425.521 293.288C426.46 292.755 427.349 292.146 428.184 291.477C426.533 290.115 425.226 288.49 424.271 286.61L424.274 286.609Z" fill="#747278"/>
<path d="M454.579 279.981L455.652 279.85L456.959 290.499L455.887 290.631C455.439 289.457 454.766 288.454 453.871 287.624C451.263 291.009 447.647 292.986 443.022 293.554C438.131 294.155 433.962 293.256 430.517 290.857C427.073 288.457 425.07 284.971 424.509 280.398C424.14 277.393 424.508 274.477 425.613 271.647C426.719 268.819 428.473 266.603 430.877 265.003C433.282 263.403 436.014 262.415 439.076 262.039C441.605 261.728 443.954 261.914 446.124 262.596C448.293 263.278 449.956 264.125 451.11 265.136C451.67 263.778 451.941 262.41 451.923 261.03L453.021 260.896L454.736 272.383L453.664 272.515C452.412 268.511 450.536 265.851 448.034 264.534C445.533 263.218 442.835 262.737 439.94 263.092C436.396 263.527 433.739 265.166 431.968 268.008C430.197 270.85 429.608 274.679 430.199 279.492C430.758 284.051 432.327 287.405 434.904 289.554C437.482 291.703 440.468 292.569 443.862 292.152C445.676 291.929 447.483 291.306 449.282 290.28C451.081 289.255 452.418 287.729 453.292 285.703C454.167 283.676 454.595 281.768 454.579 279.98L454.579 279.981Z" fill="#747278"/>
</g>
<path d="M114.316 330.673C113.9 330.732 113.484 330.625 113.069 330.353C112.647 330.036 112.404 329.645 112.339 329.183C112.306 328.952 112.34 328.688 112.439 328.391L129.451 291.907C129.63 291.505 129.974 291.268 130.483 291.196C130.899 291.138 131.292 291.248 131.661 291.526C132.07 291.751 132.3 292.049 132.352 292.419C132.385 292.65 132.348 292.891 132.242 293.142L115.15 330.061C115.01 330.411 114.733 330.615 114.316 330.673ZM138.335 329.49C136.624 329.731 135.264 329.45 134.256 328.649C133.254 327.894 132.697 327.123 132.587 326.337C132.444 325.32 132.881 324.74 133.898 324.597C134.129 324.564 134.364 324.555 134.602 324.569C134.839 324.582 135.107 324.639 135.404 324.739C136.44 325.065 137.529 325.265 138.671 325.341C139.853 325.363 140.979 325.323 142.049 325.22C142.452 325.069 142.761 324.412 142.975 323.25C143.189 322.089 143.317 320.986 143.359 319.943C143.361 318.952 143.291 317.948 143.148 316.931C142.94 315.451 142.613 313.965 142.167 312.471C141.722 310.978 141.299 309.481 140.9 307.981C139.885 309.821 138.804 311.694 137.658 313.6C136.504 315.46 135.424 317.168 134.417 318.724C133.409 320.28 132.542 321.487 131.813 322.344C131.654 322.554 131.436 322.679 131.159 322.718C130.835 322.764 130.541 322.687 130.278 322.489C130.007 322.244 129.85 321.959 129.804 321.636C129.746 321.22 129.859 320.85 130.143 320.527C130.501 320.052 131.071 319.241 131.853 318.094C132.634 316.947 133.506 315.598 134.467 314.049C135.468 312.446 136.462 310.798 137.45 309.103C138.431 307.361 139.333 305.726 140.155 304.196C140.137 303.727 140.121 303.281 140.109 302.858C140.09 302.389 140.098 301.94 140.132 301.511C140.254 300.032 140.702 298.861 141.477 297.998C142.291 297.082 143.045 296.575 143.739 296.477C144.571 296.36 145.049 296.741 145.173 297.62C145.264 298.267 145.05 299.264 144.532 300.61C144.28 301.164 144.011 301.768 143.725 302.421C143.434 303.028 143.102 303.687 142.73 304.4C142.977 306.157 143.396 307.96 143.986 309.811C144.57 311.615 144.95 312.976 145.126 313.895C145.237 314.35 145.325 314.81 145.39 315.272C145.501 315.728 145.593 316.21 145.664 316.719C145.846 318.014 145.913 319.325 145.863 320.652C145.86 321.973 145.633 323.207 145.181 324.355C146.365 323.717 147.575 322.934 148.812 322.006C150.043 321.031 151.082 320.036 151.929 319.021C152.744 318.105 153.482 317.153 154.145 316.164C154.807 315.175 155.433 314.261 156.023 313.424C156.176 313.167 156.391 313.019 156.668 312.98C156.899 312.947 157.127 313.057 157.351 313.308C157.614 313.507 157.772 313.791 157.824 314.161C157.883 314.577 157.816 314.94 157.624 315.25C157.066 316.319 156.248 317.542 155.169 318.92C154.129 320.245 153.195 321.319 152.368 322.143C151.289 323.19 149.92 324.184 148.26 325.125C146.601 326.065 144.869 326.827 143.064 327.411C142.218 328.096 141.189 328.665 139.98 329.118C139.663 329.209 139.365 329.275 139.088 329.314C138.817 329.399 138.566 329.458 138.335 329.49ZM159.07 324.949C156.527 325.307 155.077 324.214 154.719 321.671C154.57 320.607 154.632 319.372 154.906 317.966C155.314 315.834 156.045 313.492 157.101 310.938C158.203 308.379 159.341 305.908 160.516 303.527L158.019 303.878C157.649 303.93 157.332 303.856 157.068 303.658C156.844 303.406 156.709 303.119 156.664 302.795C156.625 302.518 156.682 302.25 156.834 301.993C157.026 301.683 157.307 301.502 157.677 301.45L161.908 300.855C162.326 300.137 162.701 299.447 163.032 298.788C163.358 298.082 163.686 297.399 164.018 296.74C164.431 294.984 164.993 293.278 165.703 291.622C166.46 289.96 167.467 288.569 168.724 287.449C168.936 287.278 169.134 287.179 169.319 287.153C169.689 287.101 170.039 287.24 170.368 287.571C170.691 287.856 170.882 288.207 170.94 288.623C170.986 288.946 170.919 289.309 170.74 289.712C170.627 289.916 170.269 290.556 169.666 291.631C169.062 292.706 168.353 294.032 167.537 295.608C166.714 297.139 165.856 298.745 164.96 300.427L171.619 299.491C172.035 299.432 172.355 299.529 172.579 299.78C172.797 299.985 172.925 300.227 172.964 300.504C173.009 300.828 172.959 301.141 172.813 301.445C172.661 301.702 172.376 301.86 171.96 301.918L163.637 303.088L163.149 304.147C162.817 304.807 162.33 305.865 161.686 307.323C161.088 308.775 160.441 310.375 159.743 312.123C159.092 313.865 158.55 315.544 158.117 317.161C157.724 318.726 157.596 319.993 157.732 320.964C157.895 322.12 158.461 322.63 159.432 322.494C160.218 322.383 161.346 321.847 162.814 320.887C164.322 319.873 165.768 318.585 167.151 317.023C167.966 316.107 168.704 315.155 169.367 314.166C170.029 313.177 170.656 312.263 171.245 311.426C171.398 311.169 171.613 311.021 171.89 310.982C172.121 310.949 172.349 311.059 172.573 311.31C172.837 311.509 172.994 311.793 173.046 312.163C173.105 312.579 173.038 312.942 172.846 313.252C172.289 314.321 171.47 315.544 170.391 316.922C169.351 318.247 168.417 319.321 167.59 320.145C166.015 321.686 164.255 322.924 162.312 323.857C161.122 324.449 160.041 324.813 159.07 324.949ZM196.661 334.378C194.349 334.703 192.144 334.613 190.045 334.106C187.953 333.645 186.201 332.76 184.791 331.449C183.434 330.178 182.612 328.525 182.326 326.491C182.014 324.271 182.369 322.264 183.39 320.471C184.411 318.677 185.837 317.085 187.67 315.696C189.502 314.307 191.526 313.103 193.74 312.084C196.001 311.059 198.215 310.206 200.383 309.524C202.55 308.842 204.437 308.341 206.042 308.021C206.32 307.982 206.713 307.927 207.221 307.855C207.77 307.731 208.414 307.617 209.154 307.513C210.726 307.292 212.605 307.075 214.792 306.862C217.024 306.643 219.154 306.532 221.182 306.53C222.292 303.356 223.21 300.162 223.937 296.948C224.711 293.727 225.49 290.552 226.277 287.424C227.103 284.243 228.18 281.168 229.507 278.199C227.36 278.689 225.219 279.226 223.085 279.809C220.944 280.346 218.918 281.196 217.007 282.361C213.052 284.755 210.25 287.295 208.599 289.979C206.949 292.663 206.141 294.969 206.177 296.897C206.163 297.135 206.172 297.37 206.205 297.601C206.231 297.786 206.257 297.971 206.283 298.156C206.484 299.589 206.957 300.607 207.702 301.21C208.487 301.76 209.388 301.963 210.405 301.82C211.607 301.651 212.801 301.083 213.985 300.115C215.215 299.14 216.245 297.911 217.074 296.427C217.896 294.897 218.26 293.289 218.164 291.605L218.077 290.981C218.012 290.519 217.923 290.225 217.811 290.099C217.739 289.92 217.653 289.815 217.554 289.781C217 289.529 216.697 289.218 216.645 288.848C216.6 288.524 216.723 288.224 217.014 287.947C217.305 287.671 217.636 287.506 218.006 287.454C218.514 287.383 219.035 287.569 219.569 288.013C220.097 288.41 220.445 289.21 220.614 290.412C220.952 292.817 220.626 295.032 219.638 297.057C218.649 299.082 217.302 300.733 215.595 302.01C213.935 303.281 212.249 304.037 210.538 304.277C208.92 304.505 207.461 304.191 206.162 303.336C204.856 302.435 204.044 300.851 203.726 298.586C203.687 298.308 203.648 298.031 203.609 297.753C203.616 297.469 203.624 297.185 203.631 296.902C203.61 294.405 204.564 291.631 206.493 288.577C208.415 285.478 211.489 282.688 215.714 280.208C218.061 278.794 220.56 277.782 223.209 277.174C225.905 276.56 228.571 275.902 231.208 275.201C231.81 274.457 232.476 273.821 233.203 273.294C233.977 272.761 234.78 272.436 235.612 272.319C236.26 272.228 236.791 272.318 237.207 272.59C237.622 272.862 237.862 273.229 237.927 273.691C238.005 274.246 237.713 274.853 237.051 275.512C236.436 276.164 235.266 276.73 233.541 277.208C233.224 277.299 232.907 277.391 232.589 277.483C231.913 278.71 231.236 280.267 230.558 282.154C229.874 283.995 229.262 285.849 228.723 287.717C227.711 291.254 226.878 294.554 226.224 297.616C225.57 300.679 224.764 303.669 223.806 306.585C224.955 306.707 225.949 306.897 226.787 307.157C227.665 307.364 228.275 307.679 228.617 308.102C228.848 308.4 228.986 308.71 229.031 309.034C229.115 309.635 228.88 309.975 228.325 310.053C227.863 310.118 227.398 309.995 226.93 309.683C226.778 309.61 226.342 309.53 225.623 309.442C224.943 309.302 224.055 309.191 222.959 309.109C221.823 312.098 220.462 315.001 218.878 317.817C217.293 320.633 215.438 323.205 213.313 325.531C211.234 327.851 208.816 329.77 206.059 331.289C203.308 332.855 200.176 333.885 196.661 334.378ZM184.823 326.14C185.102 328.128 186.264 329.686 188.309 330.813C190.406 331.98 193.073 332.336 196.31 331.881C200.518 331.29 204.137 329.862 207.167 327.597C210.249 325.372 212.857 322.624 214.991 319.354C217.131 316.129 218.886 312.676 220.255 308.994L220.185 309.004C218.772 309.014 217.319 309.077 215.826 309.192C214.334 309.308 212.848 309.47 211.368 309.678C207.992 310.152 204.629 310.884 201.279 311.873C197.975 312.857 194.951 314.154 192.206 315.766C189.806 317.14 187.901 318.681 186.49 320.388C185.086 322.142 184.531 324.059 184.823 326.14ZM239.268 313.325C237.974 313.507 236.951 313.273 236.199 312.624C235.488 311.923 235.051 310.994 234.888 309.838C234.706 308.543 234.865 306.988 235.364 305.173C235.903 303.306 236.667 301.359 237.656 299.334C238.644 297.309 239.768 295.406 241.027 293.626C242.325 291.793 243.669 290.284 245.059 289.099C246.442 287.867 247.781 287.16 249.075 286.978C249.954 286.855 250.829 286.873 251.7 287.034C252.565 287.148 253.304 287.539 253.916 288.207C254.575 288.869 255.005 289.917 255.207 291.351C255.278 291.859 255.192 292.249 254.947 292.519C254.702 292.789 254.464 292.94 254.232 292.973C253.724 293.044 253.444 292.895 253.392 292.525C252.952 291.078 252.33 290.175 251.525 289.817C250.767 289.452 250.064 289.315 249.417 289.406C248.492 289.536 247.47 290.151 246.352 291.251C245.233 292.351 244.127 293.709 243.034 295.325C241.94 296.94 240.933 298.661 240.011 300.489C239.128 302.263 238.448 303.962 237.969 305.585C237.483 307.163 237.308 308.437 237.445 309.408C237.51 309.87 237.638 310.277 237.828 310.627C238.065 310.971 238.369 311.117 238.739 311.065C239.432 310.967 240.282 310.471 241.288 309.575C242.294 308.679 243.339 307.565 244.426 306.234C245.551 304.85 246.647 303.423 247.714 301.952C248.781 300.482 249.741 299.098 250.596 297.799C251.451 296.5 252.107 295.464 252.564 294.693C252.783 294.237 253.101 293.981 253.517 293.922C253.841 293.877 254.158 293.95 254.468 294.142C254.777 294.334 254.958 294.615 255.01 294.985C255.036 295.17 254.996 295.388 254.89 295.639C254.638 296.193 254.346 296.965 254.013 297.955C253.727 298.938 253.427 299.994 253.114 301.123C252.848 302.245 252.618 303.291 252.424 304.261C252.27 305.179 252.225 305.869 252.29 306.331C252.355 306.794 252.55 307.002 252.873 306.956C253.105 306.924 253.366 306.769 253.657 306.493C253.994 306.209 254.289 305.956 254.54 305.732C255.52 304.651 256.447 303.531 257.321 302.37C258.189 301.164 258.974 300.04 259.677 298.998C259.829 298.741 260.044 298.593 260.322 298.554C260.553 298.521 260.78 298.631 261.004 298.882C261.268 299.081 261.426 299.365 261.478 299.735C261.536 300.151 261.47 300.514 261.277 300.824C260.674 301.899 259.856 303.122 258.822 304.494C257.783 305.819 256.849 306.893 256.022 307.716C255.479 308.217 254.821 308.734 254.047 309.267C253.313 309.748 252.576 310.04 251.836 310.144C251.281 310.222 250.796 310.125 250.38 309.853C249.959 309.535 249.686 308.937 249.562 308.058C249.465 307.365 249.47 306.562 249.578 305.651C249.685 304.74 249.836 303.8 250.03 302.829C248.93 304.398 247.735 305.958 246.443 307.506C245.152 309.055 243.878 310.39 242.621 311.51C241.403 312.577 240.286 313.182 239.268 313.325ZM260.321 311.639C259.997 311.685 259.68 311.611 259.37 311.419C259.06 311.227 258.882 310.969 258.837 310.645C258.824 310.553 258.844 310.361 258.898 310.071C259.543 307.952 260.191 306.022 260.842 304.28C261.533 302.486 262.254 300.734 263.004 299.025C263.329 298.32 263.675 297.422 264.04 296.333C264.446 295.192 264.818 293.984 265.158 292.711C265.491 291.391 265.742 290.153 265.909 288.998C266.123 287.836 266.181 286.908 266.084 286.215C266.032 285.845 265.973 285.594 265.907 285.461C265.855 285.422 265.819 285.332 265.799 285.194C265.747 284.824 265.867 284.5 266.158 284.224C266.489 283.894 266.816 283.707 267.14 283.661C267.51 283.609 267.882 283.746 268.258 284.07C268.627 284.348 268.87 284.903 268.987 285.736C269.085 286.429 269.053 287.377 268.892 288.578C268.77 289.727 268.473 291.136 268.001 292.806C267.741 293.644 267.498 294.433 267.272 295.172C267.039 295.865 266.803 296.535 266.564 297.181C268.101 295.032 269.714 293.084 271.402 291.338C273.083 289.546 274.602 288.106 275.958 287.019C277.314 285.933 278.247 285.354 278.755 285.282C279.31 285.204 279.726 285.311 280.003 285.602C280.279 285.893 280.447 286.247 280.506 286.663C280.59 287.264 280.503 287.984 280.243 288.822C280.023 289.607 279.771 290.327 279.485 290.98C279.2 291.633 279.004 292.085 278.898 292.336C278.5 293.193 277.972 294.47 277.314 296.165C276.657 297.861 276.131 299.491 275.738 301.055C275.624 301.59 275.514 302.148 275.407 302.729C275.34 303.257 275.332 303.706 275.384 304.076C275.469 304.677 275.765 304.942 276.274 304.87C276.737 304.805 277.375 304.48 278.188 303.894C279.213 303.137 280.123 302.231 280.918 301.176C281.753 300.068 282.468 299.119 283.064 298.328C283.104 298.275 283.28 298.015 283.591 297.547C283.949 297.072 284.283 296.601 284.595 296.132C284.953 295.658 285.131 295.42 285.131 295.42C285.284 295.163 285.499 295.015 285.776 294.976C286.007 294.944 286.235 295.053 286.459 295.305C286.723 295.503 286.881 295.788 286.933 296.158C286.991 296.574 286.924 296.937 286.732 297.247C286.175 298.315 285.376 299.512 284.337 300.837C283.297 302.162 282.366 303.259 281.546 304.129C280.679 305.006 279.769 305.746 278.816 306.352C277.904 306.905 276.962 307.249 275.991 307.386C275.159 307.503 274.442 307.438 273.842 307.192C273.242 306.947 272.844 306.13 272.649 304.743C272.402 302.986 272.598 301.19 273.236 299.356C273.92 297.515 274.7 295.684 275.576 293.863C276.498 292.036 277.225 290.331 277.757 288.747C276.698 289.603 275.299 290.884 273.558 292.591C271.864 294.291 270.089 296.261 268.235 298.502C266.421 300.691 264.817 303.038 263.425 305.544C263.186 306.191 262.93 306.887 262.658 307.633C262.385 308.378 262.122 309.193 261.869 310.078C261.577 311.015 261.06 311.535 260.321 311.639Z" fill="#012D48"/>
<path d="M629.523 257.701C627.858 257.935 625.936 258.016 623.757 257.945C621.625 257.868 619.492 257.79 617.359 257.713C615.226 257.635 613.397 257.704 611.871 257.918C610.946 258.048 610.153 258.278 609.492 258.606C609.102 258.85 608.675 259.004 608.213 259.069C607.704 259.141 607.292 259.057 606.975 258.819C606.699 258.527 606.534 258.197 606.482 257.827C606.417 257.364 606.494 256.906 606.713 256.451C606.978 255.989 607.359 255.676 607.854 255.512C612.504 252.359 616.43 249.591 619.631 247.208C622.826 244.779 625.529 242.536 627.739 240.481C631.088 237.464 633.6 234.871 635.275 232.702C636.951 230.533 637.88 228.753 638.061 227.36C638.128 226.831 638.133 226.359 638.074 225.943C637.925 224.88 637.356 224.016 636.367 223.354C635.371 222.645 633.763 222.447 631.544 222.758C629.278 223.077 627.259 223.809 625.487 224.954C623.76 226.092 622.259 227.317 620.981 228.628C619.743 229.887 618.737 230.948 617.962 231.811C617.519 232.345 617.089 232.641 616.673 232.7C616.025 232.791 615.646 232.443 615.536 231.657C615.445 231.01 615.671 230.27 616.215 229.44C616.884 228.497 617.926 227.36 619.343 226.029C620.759 224.699 622.472 223.468 624.482 222.336C626.486 221.159 628.713 220.398 631.164 220.053C634.169 219.631 636.503 219.963 638.165 221.05C639.866 222.084 640.85 223.549 641.116 225.445C641.149 225.676 641.162 225.934 641.154 226.218C641.187 226.449 641.196 226.683 641.182 226.921C641.072 229.153 639.973 231.57 637.887 234.174C635.841 236.725 633.2 239.407 629.964 242.219C628.032 243.906 625.743 245.736 623.097 247.711C620.497 249.68 617.15 252.202 613.055 255.276C614.363 255.187 615.829 255.217 617.453 255.365C619.117 255.462 620.824 255.528 622.574 255.565C624.324 255.602 625.985 255.51 627.557 255.289C628.251 255.192 628.915 255.051 629.549 254.868C630.184 254.684 630.788 254.458 631.363 254.189C631.582 254.064 631.969 253.797 632.524 253.389C633.12 252.928 633.593 252.437 633.944 251.916C634.183 251.6 634.464 251.419 634.787 251.373C635.111 251.328 635.385 251.431 635.609 251.682C635.879 251.927 636.04 252.235 636.092 252.605C636.144 252.974 636.061 253.387 635.842 253.842C634.404 256.025 632.297 257.311 629.523 257.701ZM643.999 257.718C643.675 257.763 643.358 257.69 643.048 257.498C642.738 257.305 642.561 257.047 642.515 256.724C642.502 256.631 642.522 256.44 642.576 256.149C643.221 254.031 643.87 252.101 644.521 250.359C645.212 248.564 645.932 246.813 646.682 245.104C647.007 244.398 647.353 243.501 647.718 242.412C648.124 241.271 648.496 240.063 648.836 238.789C649.169 237.469 649.42 236.231 649.587 235.076C649.801 233.914 649.86 232.987 649.762 232.293C649.71 231.923 649.651 231.672 649.586 231.54C649.533 231.5 649.497 231.411 649.477 231.272C649.425 230.902 649.545 230.579 649.836 230.302C650.167 229.973 650.494 229.785 650.818 229.74C651.188 229.688 651.561 229.824 651.936 230.149C652.306 230.427 652.549 230.982 652.666 231.814C652.763 232.508 652.731 233.456 652.57 234.657C652.449 235.806 652.151 237.215 651.679 238.885C651.419 239.723 651.177 240.511 650.95 241.251C650.718 241.943 650.482 242.613 650.242 243.26C651.779 241.11 653.392 239.163 655.08 237.417C656.761 235.624 658.28 234.185 659.636 233.098C660.992 232.012 661.925 231.433 662.434 231.361C662.988 231.283 663.404 231.39 663.681 231.681C663.958 231.972 664.125 232.326 664.184 232.742C664.268 233.343 664.181 234.063 663.921 234.901C663.702 235.686 663.449 236.405 663.164 237.058C662.878 237.712 662.682 238.163 662.576 238.414C662.178 239.272 661.65 240.548 660.992 242.244C660.335 243.94 659.809 245.57 659.416 247.134C659.303 247.669 659.192 248.226 659.085 248.807C659.018 249.335 659.011 249.784 659.063 250.154C659.147 250.755 659.444 251.02 659.952 250.949C660.415 250.884 661.053 250.558 661.866 249.972C662.892 249.215 663.802 248.309 664.597 247.255C665.431 246.147 666.146 245.198 666.743 244.407C666.782 244.354 666.958 244.093 667.269 243.625C667.627 243.151 667.962 242.679 668.273 242.211C668.631 241.736 668.81 241.499 668.81 241.499C668.962 241.242 669.177 241.094 669.454 241.055C669.686 241.022 669.913 241.132 670.137 241.383C670.401 241.582 670.559 241.866 670.611 242.236C670.669 242.652 670.602 243.015 670.41 243.325C669.853 244.394 669.055 245.591 668.015 246.916C666.975 248.241 666.045 249.338 665.224 250.208C664.357 251.084 663.447 251.825 662.495 252.43C661.582 252.983 660.64 253.328 659.669 253.464C658.837 253.581 658.121 253.517 657.52 253.271C656.92 253.025 656.522 252.209 656.327 250.822C656.08 249.064 656.276 247.269 656.914 245.434C657.598 243.593 658.378 241.763 659.254 239.942C660.176 238.115 660.903 236.409 661.435 234.826C660.377 235.682 658.977 236.963 657.236 238.67C655.542 240.369 653.768 242.34 651.913 244.581C650.099 246.769 648.496 249.117 647.103 251.623C646.864 252.269 646.608 252.966 646.336 253.711C646.063 254.457 645.801 255.272 645.548 256.156C645.255 257.093 644.739 257.614 643.999 257.718ZM671.649 252.559C670.354 252.741 669.331 252.507 668.58 251.858C667.868 251.157 667.431 250.228 667.268 249.072C667.086 247.777 667.245 246.222 667.745 244.407C668.284 242.54 669.048 240.593 670.036 238.568C671.025 236.543 672.148 234.64 673.407 232.86C674.706 231.027 676.05 229.518 677.439 228.333C678.822 227.101 680.161 226.394 681.456 226.212C682.38 226.082 683.305 226.117 684.229 226.317C685.193 226.465 685.971 226.969 686.563 227.828C687.342 224.984 688.356 222.13 689.604 219.267C690.845 216.357 692.172 213.719 693.584 211.351C695.042 208.977 696.483 207.148 697.906 205.864C698.951 204.915 699.936 204.376 700.861 204.246C701.601 204.142 702.215 204.315 702.702 204.765C703.23 205.163 703.562 205.847 703.698 206.818C703.958 208.667 703.726 210.704 703.001 212.928C702.322 215.145 701.32 217.408 699.994 219.716C698.668 222.025 697.197 224.306 695.58 226.561C694.004 228.763 692.457 230.843 690.94 232.801C689.417 234.713 688.096 236.384 686.976 237.814C686.412 239.167 685.9 240.724 685.44 242.486C685.02 244.196 684.888 245.605 685.044 246.715C685.22 247.963 685.793 248.519 686.764 248.383C687.55 248.273 688.677 247.737 690.146 246.776C691.654 245.763 693.076 244.478 694.414 242.923C695.228 242.007 695.967 241.054 696.629 240.065C697.292 239.076 697.918 238.163 698.508 237.325C698.66 237.068 698.875 236.92 699.153 236.881C699.384 236.849 699.611 236.958 699.835 237.209C700.099 237.408 700.257 237.692 700.309 238.062C700.367 238.479 700.3 238.842 700.108 239.152C699.551 240.22 698.733 241.443 697.653 242.821C696.613 244.146 695.68 245.22 694.853 246.044C693.277 247.586 691.518 248.823 689.574 249.756C688.384 250.348 687.304 250.712 686.333 250.849C683.789 251.206 682.339 250.113 681.982 247.57C681.832 246.506 681.894 245.271 682.168 243.866C682.162 243.819 682.178 243.77 682.218 243.717C680.954 245.121 679.636 246.485 678.266 247.809C676.943 249.127 675.682 250.223 674.485 251.099C673.288 251.975 672.342 252.461 671.649 252.559ZM687.423 232.942C687.834 232.507 688.539 231.653 689.539 230.381C690.539 229.109 691.672 227.606 692.937 225.872C694.242 224.085 695.508 222.186 696.734 220.175C697.96 218.163 699.001 216.178 699.858 214.219C700.714 212.259 701.24 210.464 701.435 208.833C701.455 208.642 701.446 208.408 701.407 208.13C701.31 207.436 700.983 207.129 700.428 207.207C699.735 207.304 698.991 207.88 698.196 208.935C696.639 210.946 695.181 213.32 693.821 216.057C692.501 218.742 691.293 221.552 690.196 224.489C689.14 227.372 688.215 230.19 687.423 232.942ZM671.119 250.299C671.766 250.208 672.556 249.79 673.489 249.046C674.468 248.296 675.494 247.373 676.566 246.28C677.638 245.186 678.681 244.049 679.694 242.869C680.754 241.683 681.684 240.586 682.485 239.577C683.287 238.569 683.886 237.801 684.283 237.273L685.536 231.085C685.043 229.928 684.447 229.21 683.748 228.931C683.048 228.652 682.398 228.555 681.797 228.64C680.872 228.77 679.85 229.385 678.732 230.485C677.613 231.585 676.507 232.943 675.414 234.559C674.321 236.174 673.313 237.895 672.391 239.723C671.509 241.497 670.828 243.196 670.349 244.819C669.863 246.397 669.689 247.671 669.825 248.642C669.89 249.104 670.018 249.511 670.209 249.861C670.446 250.205 670.749 250.351 671.119 250.299ZM723.939 260.275C721.627 260.6 719.422 260.509 717.323 260.003C715.231 259.542 713.48 258.657 712.069 257.346C710.712 256.075 709.89 254.422 709.604 252.388C709.292 250.168 709.647 248.161 710.668 246.367C711.689 244.574 713.116 242.982 714.948 241.593C716.78 240.204 718.804 239 721.018 237.981C723.279 236.956 725.493 236.103 727.661 235.421C729.829 234.739 731.715 234.238 733.321 233.918C733.598 233.879 733.991 233.824 734.5 233.752C735.048 233.628 735.692 233.514 736.432 233.41C738.004 233.189 739.884 232.972 742.07 232.759C744.302 232.54 746.432 232.429 748.46 232.427C749.57 229.253 750.488 226.059 751.215 222.845C751.989 219.624 752.769 216.449 753.555 213.321C754.381 210.14 755.458 207.065 756.785 204.096C754.638 204.586 752.497 205.123 750.363 205.706C748.222 206.243 746.196 207.093 744.285 208.258C740.33 210.652 737.528 213.192 735.878 215.876C734.227 218.56 733.42 220.866 733.455 222.794C733.441 223.032 733.45 223.266 733.483 223.498C733.509 223.683 733.535 223.868 733.561 224.053C733.762 225.486 734.235 226.504 734.98 227.107C735.765 227.657 736.666 227.86 737.683 227.717C738.885 227.548 740.079 226.98 741.263 226.012C742.493 225.037 743.523 223.808 744.352 222.324C745.174 220.794 745.538 219.186 745.443 217.502L745.355 216.878C745.29 216.416 745.201 216.121 745.089 215.996C745.017 215.817 744.932 215.711 744.833 215.678C744.279 215.426 743.975 215.115 743.923 214.745C743.878 214.421 744.001 214.121 744.292 213.844C744.583 213.568 744.914 213.403 745.284 213.351C745.792 213.28 746.314 213.466 746.848 213.91C747.375 214.307 747.723 215.107 747.892 216.309C748.23 218.714 747.905 220.929 746.916 222.954C745.928 224.979 744.58 226.63 742.873 227.907C741.213 229.178 739.527 229.934 737.816 230.174C736.198 230.401 734.739 230.088 733.44 229.233C732.135 228.332 731.323 226.748 731.004 224.483C730.965 224.205 730.926 223.928 730.887 223.65C730.895 223.366 730.902 223.082 730.909 222.798C730.888 220.302 731.842 217.527 733.771 214.474C735.693 211.375 738.767 208.585 742.992 206.105C745.34 204.691 747.838 203.679 750.488 203.071C753.183 202.457 755.85 201.799 758.486 201.098C759.089 200.354 759.754 199.718 760.481 199.191C761.255 198.658 762.058 198.333 762.891 198.216C763.538 198.125 764.069 198.215 764.485 198.487C764.9 198.759 765.14 199.126 765.205 199.588C765.283 200.143 764.991 200.75 764.33 201.409C763.714 202.061 762.544 202.626 760.819 203.105C760.502 203.196 760.185 203.288 759.868 203.38C759.191 204.607 758.514 206.164 757.836 208.051C757.152 209.892 756.54 211.746 756.001 213.613C754.989 217.151 754.156 220.451 753.502 223.513C752.848 226.576 752.042 229.566 751.085 232.482C752.233 232.604 753.227 232.794 754.065 233.054C754.943 233.261 755.553 233.576 755.895 233.999C756.126 234.297 756.264 234.607 756.309 234.931C756.394 235.532 756.158 235.872 755.604 235.95C755.141 236.015 754.676 235.892 754.208 235.58C754.056 235.507 753.62 235.427 752.901 235.339C752.221 235.199 751.333 235.088 750.237 235.006C749.101 237.995 747.74 240.898 746.156 243.714C744.571 246.53 742.716 249.102 740.591 251.428C738.512 253.748 736.094 255.667 733.337 257.186C730.586 258.752 727.454 259.781 723.939 260.275ZM712.101 252.037C712.381 254.025 713.543 255.583 715.587 256.71C717.685 257.877 720.352 258.233 723.589 257.778C727.796 257.187 731.415 255.759 734.445 253.494C737.527 251.269 740.135 248.521 742.269 245.251C744.41 242.026 746.164 238.573 747.533 234.891L747.464 234.901C746.05 234.911 744.597 234.974 743.105 235.089C741.612 235.205 740.126 235.366 738.646 235.574C735.27 236.049 731.907 236.781 728.557 237.77C725.253 238.753 722.229 240.051 719.485 241.663C717.084 243.037 715.179 244.578 713.768 246.285C712.364 248.039 711.809 249.956 712.101 252.037ZM766.547 239.222C765.252 239.404 764.229 239.17 763.477 238.521C762.766 237.82 762.329 236.891 762.166 235.735C761.984 234.44 762.143 232.885 762.642 231.07C763.182 229.203 763.945 227.256 764.934 225.231C765.923 223.206 767.046 221.303 768.305 219.523C769.603 217.69 770.947 216.181 772.337 214.996C773.72 213.764 775.059 213.057 776.354 212.875C777.232 212.752 778.107 212.77 778.978 212.931C779.843 213.045 780.582 213.436 781.195 214.104C781.853 214.766 782.284 215.814 782.485 217.247C782.557 217.756 782.47 218.146 782.225 218.416C781.98 218.686 781.742 218.837 781.511 218.87C781.002 218.941 780.722 218.792 780.67 218.422C780.231 216.975 779.609 216.072 778.804 215.714C778.045 215.349 777.342 215.212 776.695 215.303C775.77 215.433 774.748 216.048 773.63 217.148C772.511 218.248 771.405 219.606 770.312 221.222C769.219 222.837 768.211 224.558 767.289 226.386C766.407 228.16 765.726 229.859 765.247 231.482C764.761 233.059 764.586 234.334 764.723 235.305C764.788 235.767 764.916 236.174 765.106 236.524C765.343 236.868 765.647 237.014 766.017 236.962C766.71 236.864 767.56 236.368 768.566 235.472C769.572 234.576 770.618 233.462 771.704 232.131C772.829 230.747 773.926 229.319 774.992 227.849C776.059 226.379 777.019 224.994 777.874 223.695C778.729 222.396 779.385 221.361 779.843 220.59C780.062 220.134 780.379 219.878 780.795 219.819C781.119 219.774 781.436 219.847 781.746 220.039C782.056 220.231 782.237 220.512 782.289 220.882C782.315 221.067 782.275 221.285 782.168 221.536C781.916 222.09 781.624 222.862 781.291 223.852C781.005 224.835 780.706 225.891 780.393 227.02C780.126 228.142 779.896 229.188 779.702 230.158C779.548 231.076 779.504 231.766 779.569 232.228C779.634 232.69 779.828 232.899 780.152 232.853C780.383 232.821 780.644 232.666 780.935 232.39C781.273 232.106 781.567 231.853 781.818 231.629C782.798 230.548 783.725 229.428 784.6 228.267C785.468 227.061 786.253 225.937 786.955 224.895C787.107 224.638 787.322 224.49 787.6 224.451C787.831 224.418 788.059 224.528 788.283 224.779C788.546 224.978 788.704 225.262 788.756 225.632C788.815 226.048 788.748 226.411 788.556 226.721C787.952 227.796 787.134 229.019 786.101 230.391C785.061 231.716 784.127 232.79 783.3 233.613C782.757 234.114 782.099 234.631 781.325 235.164C780.591 235.644 779.854 235.937 779.114 236.041C778.559 236.119 778.074 236.022 777.659 235.75C777.237 235.432 776.964 234.834 776.841 233.955C776.743 233.262 776.748 232.459 776.856 231.548C776.964 230.637 777.114 229.697 777.308 228.726C776.208 230.295 775.013 231.854 773.722 233.403C772.43 234.952 771.156 236.287 769.899 237.407C768.681 238.474 767.564 239.079 766.547 239.222ZM787.599 237.536C787.275 237.582 786.958 237.508 786.648 237.316C786.338 237.124 786.161 236.866 786.115 236.542C786.102 236.45 786.122 236.258 786.176 235.968C786.821 233.849 787.47 231.919 788.121 230.177C788.812 228.383 789.532 226.631 790.282 224.922C790.607 224.216 790.953 223.319 791.318 222.23C791.724 221.089 792.096 219.881 792.436 218.607C792.769 217.287 793.02 216.05 793.187 214.895C793.401 213.733 793.46 212.805 793.362 212.111C793.31 211.742 793.251 211.49 793.186 211.358C793.133 211.318 793.097 211.229 793.077 211.091C793.025 210.721 793.145 210.397 793.436 210.121C793.767 209.791 794.094 209.604 794.418 209.558C794.788 209.506 795.161 209.642 795.536 209.967C795.906 210.245 796.149 210.8 796.266 211.633C796.363 212.326 796.331 213.274 796.17 214.475C796.049 215.624 795.751 217.033 795.279 218.703C795.019 219.541 794.777 220.33 794.55 221.069C794.318 221.762 794.082 222.431 793.842 223.078C795.379 220.929 796.992 218.981 798.68 217.235C800.361 215.442 801.88 214.003 803.236 212.916C804.592 211.83 805.525 211.251 806.034 211.179C806.588 211.101 807.004 211.208 807.281 211.499C807.558 211.79 807.725 212.144 807.784 212.56C807.868 213.161 807.781 213.881 807.521 214.719C807.302 215.504 807.049 216.224 806.764 216.877C806.478 217.53 806.282 217.982 806.176 218.233C805.778 219.09 805.25 220.367 804.592 222.062C803.935 223.758 803.409 225.388 803.016 226.952C802.903 227.487 802.792 228.045 802.685 228.625C802.618 229.154 802.611 229.603 802.663 229.973C802.747 230.574 803.044 230.839 803.552 230.767C804.015 230.702 804.653 230.377 805.466 229.791C806.492 229.034 807.402 228.128 808.197 227.073C809.031 225.965 809.746 225.016 810.343 224.225C810.382 224.172 810.558 223.912 810.869 223.444C811.227 222.969 811.562 222.498 811.873 222.029C812.231 221.555 812.41 221.317 812.41 221.317C812.562 221.06 812.777 220.912 813.054 220.873C813.286 220.841 813.513 220.95 813.737 221.202C814.001 221.4 814.159 221.685 814.211 222.055C814.269 222.471 814.202 222.834 814.01 223.144C813.453 224.212 812.655 225.409 811.615 226.734C810.575 228.059 809.645 229.156 808.824 230.026C807.957 230.903 807.047 231.643 806.095 232.249C805.182 232.801 804.24 233.146 803.269 233.282C802.437 233.399 801.721 233.335 801.12 233.089C800.52 232.844 800.122 232.027 799.927 230.64C799.68 228.883 799.876 227.087 800.514 225.253C801.198 223.412 801.978 221.581 802.854 219.76C803.776 217.933 804.503 216.228 805.035 214.644C803.977 215.5 802.577 216.781 800.836 218.488C799.142 220.188 797.368 222.158 795.513 224.399C793.699 226.588 792.096 228.935 790.703 231.441C790.464 232.088 790.208 232.784 789.936 233.53C789.663 234.275 789.401 235.09 789.148 235.974C788.855 236.912 788.339 237.432 787.599 237.536Z" fill="#012D48"/>
<defs>
<filter id="filter0_d_269_1594" x="5.37894" y="66.7351" width="1109.28" height="837.595" filterUnits="userSpaceOnUse" color-interpolation-filters="sRGB">
<feFlood flood-opacity="0" result="BackgroundImageFix"/>
<feColorMatrix in="SourceAlpha" type="matrix" values="0 0 0 0 0 0 0 0 0 0 0 0 0 0 0 0 0 0 127 0" result="hardAlpha"/>
<feOffset dy="4"/>
<feGaussianBlur stdDeviation="2"/>
<feComposite in2="hardAlpha" operator="out"/>
<feColorMatrix type="matrix" values="0 0 0 0 0 0 0 0 0 0 0 0 0 0 0 0 0 0 0.25 0"/>
<feBlend mode="normal" in2="BackgroundImageFix" result="effect1_dropShadow_269_1594"/>
<feBlend mode="normal" in="SourceGraphic" in2="effect1_dropShadow_269_1594" result="shape"/>
</filter>
<filter id="filter1_d_269_1594" x="495.158" y="384.942" width="103.008" height="36.5963" filterUnits="userSpaceOnUse" color-interpolation-filters="sRGB">
<feFlood flood-opacity="0" result="BackgroundImageFix"/>
<feColorMatrix in="SourceAlpha" type="matrix" values="0 0 0 0 0 0 0 0 0 0 0 0 0 0 0 0 0 0 127 0" result="hardAlpha"/>
<feOffset dy="4"/>
<feGaussianBlur stdDeviation="2"/>
<feComposite in2="hardAlpha" operator="out"/>
<feColorMatrix type="matrix" values="0 0 0 0 0 0 0 0 0 0 0 0 0 0 0 0 0 0 0.25 0"/>
<feBlend mode="normal" in2="BackgroundImageFix" result="effect1_dropShadow_269_1594"/>
<feBlend mode="normal" in="SourceGraphic" in2="effect1_dropShadow_269_1594" result="shape"/>
</filter>
<filter id="filter2_d_269_1594" x="518.359" y="550.021" width="103.008" height="36.5963" filterUnits="userSpaceOnUse" color-interpolation-filters="sRGB">
<feFlood flood-opacity="0" result="BackgroundImageFix"/>
<feColorMatrix in="SourceAlpha" type="matrix" values="0 0 0 0 0 0 0 0 0 0 0 0 0 0 0 0 0 0 127 0" result="hardAlpha"/>
<feOffset dy="4"/>
<feGaussianBlur stdDeviation="2"/>
<feComposite in2="hardAlpha" operator="out"/>
<feColorMatrix type="matrix" values="0 0 0 0 0 0 0 0 0 0 0 0 0 0 0 0 0 0 0.25 0"/>
<feBlend mode="normal" in2="BackgroundImageFix" result="effect1_dropShadow_269_1594"/>
<feBlend mode="normal" in="SourceGraphic" in2="effect1_dropShadow_269_1594" result="shape"/>
</filter>
<filter id="filter3_d_269_1594" x="807.35" y="20.486" width="141.735" height="116.522" filterUnits="userSpaceOnUse" color-interpolation-filters="sRGB">
<feFlood flood-opacity="0" result="BackgroundImageFix"/>
<feColorMatrix in="SourceAlpha" type="matrix" values="0 0 0 0 0 0 0 0 0 0 0 0 0 0 0 0 0 0 127 0" result="hardAlpha"/>
<feOffset dy="4"/>
<feGaussianBlur stdDeviation="2"/>
<feComposite in2="hardAlpha" operator="out"/>
<feColorMatrix type="matrix" values="0 0 0 0 0 0 0 0 0 0 0 0 0 0 0 0 0 0 0.25 0"/>
<feBlend mode="normal" in2="BackgroundImageFix" result="effect1_dropShadow_269_1594"/>
<feBlend mode="normal" in="SourceGraphic" in2="effect1_dropShadow_269_1594" result="shape"/>
</filter>
<filter id="filter4_i_269_1594" x="885.572" y="156.549" width="73.7145" height="83.5075" filterUnits="userSpaceOnUse" color-interpolation-filters="sRGB">
<feFlood flood-opacity="0" result="BackgroundImageFix"/>
<feBlend mode="normal" in="SourceGraphic" in2="BackgroundImageFix" result="shape"/>
<feColorMatrix in="SourceAlpha" type="matrix" values="0 0 0 0 0 0 0 0 0 0 0 0 0 0 0 0 0 0 127 0" result="hardAlpha"/>
<feOffset dy="14.1874"/>
<feGaussianBlur stdDeviation="7.09371"/>
<feComposite in2="hardAlpha" operator="arithmetic" k2="-1" k3="1"/>
<feColorMatrix type="matrix" values="0 0 0 0 0 0 0 0 0 0 0 0 0 0 0 0 0 0 0.25 0"/>
<feBlend mode="normal" in2="shape" result="effect1_innerShadow_269_1594"/>
</filter>
<filter id="filter5_i_269_1594" x="383.246" y="227.145" width="73.7131" height="83.5072" filterUnits="userSpaceOnUse" color-interpolation-filters="sRGB">
<feFlood flood-opacity="0" result="BackgroundImageFix"/>
<feBlend mode="normal" in="SourceGraphic" in2="BackgroundImageFix" result="shape"/>
<feColorMatrix in="SourceAlpha" type="matrix" values="0 0 0 0 0 0 0 0 0 0 0 0 0 0 0 0 0 0 127 0" result="hardAlpha"/>
<feOffset dy="14.1874"/>
<feGaussianBlur stdDeviation="7.09371"/>
<feComposite in2="hardAlpha" operator="arithmetic" k2="-1" k3="1"/>
<feColorMatrix type="matrix" values="0 0 0 0 0 0 0 0 0 0 0 0 0 0 0 0 0 0 0.25 0"/>
<feBlend mode="normal" in2="shape" result="effect1_innerShadow_269_1594"/>
</filter>
<linearGradient id="paint0_linear_269_1594" x1="498.012" y1="405.99" x2="593.777" y2="405.99" gradientUnits="userSpaceOnUse">
<stop stop-color="#C2C1C1"/>
<stop offset="0.51" stop-color="#D9D9D9"/>
<stop offset="1" stop-color="#C2C1C1"/>
</linearGradient>
<linearGradient id="paint1_linear_269_1594" x1="521.212" y1="571.07" x2="616.977" y2="571.07" gradientUnits="userSpaceOnUse">
<stop stop-color="#C2C1C1"/>
<stop offset="0.51" stop-color="#D9D9D9"/>
<stop offset="1" stop-color="#C2C1C1"/>
</linearGradient>
</defs>
</svg>
